<svg width="22" height="39" viewBox="0 0 22 39" fill="none" xmlns="http://www.w3.org/2000/svg">
<path d="M15.3888 0.9487C13.5383 0.940371 11.7298 1.49458 10.2083 2.5363C9.37022 3.13808 8.66332 3.90064 8.12976 4.7785C7.59621 5.65635 7.24692 6.6315 7.10276 7.64576C6.96369 8.51729 6.89105 9.39792 6.88545 10.2802C6.8504 11.6668 6.88545 13.0533 6.88545 14.4399V14.9529H0.954834V21.7955H6.85039V38.9958H14.0569V21.7886H19.9314C20.2328 19.5147 20.5273 17.2615 20.8357 14.9113H19.5108C17.8424 14.9113 14.0078 14.9113 14.0078 14.9113C14.0078 14.9113 14.0078 11.5212 14.0639 10.0584C14.12 8.04093 15.3327 7.42391 16.9661 7.36845C18.1578 7.32685 19.3425 7.36845 20.5413 7.36845H21.032V1.21908C20.3941 1.15668 19.7281 1.06656 19.0621 1.03883C17.8354 0.983364 16.6086 0.920969 15.3888 0.9487Z" fill="white"/>
</svg>
