<svg width="35" height="36" viewBox="0 0 35 36" fill="none" xmlns="http://www.w3.org/2000/svg">
<path id="Union" fill-rule="evenodd" clip-rule="evenodd" d="M31.7649 3.55902C30.0337 1.96088 27.7674 1.05007 25.3997 1.00082C21.3267 0.785907 11.6457 0.647252 8.24573 1.19494C6.44917 1.40457 4.76251 2.15981 3.41795 3.35668C2.07338 4.55355 1.13702 6.1332 0.737822 7.87813C-0.0893718 10.7968 0.0788563 24.2464 0.555556 27.1304C1.21451 31.0821 3.57695 33.6057 7.56573 34.6178C10.2997 35.3111 23.7453 35.2279 26.7667 34.7426C30.7554 34.1048 33.3282 31.7823 34.3657 27.8792C35.1579 24.8842 34.8774 12.1349 34.604 9.43108C34.4192 7.19526 33.4086 5.10499 31.7649 3.55902ZM31.3723 26.555C31.2245 27.9256 30.5882 29.1994 29.5773 30.1483C28.5664 31.0972 27.247 31.6592 25.8553 31.7338C23.0512 32.0388 10.5591 32.2052 7.96533 31.4912C6.82861 31.219 5.80426 30.6071 5.0316 29.7388C4.25896 28.8705 3.77553 27.7879 3.64705 26.6382C3.25448 24.2741 3.15634 12.4815 3.64705 9.30629C3.79869 7.94209 4.43376 6.67502 5.43976 5.72963C6.44574 4.78425 7.75766 4.22159 9.14303 4.14137C12.2205 3.80166 23.2756 3.767 26.2199 4.2107C27.6067 4.35885 28.8949 4.99081 29.8533 5.99323C30.8116 6.99565 31.3775 8.30294 31.4495 9.68065C31.7509 12.5231 31.821 23.5254 31.3723 26.555ZM17.5062 9.16065C15.7468 9.15928 14.0264 9.67391 12.5627 10.6395C11.099 11.605 9.95772 12.9782 9.28313 14.5852C8.60852 16.1922 8.43095 17.961 8.77284 19.6679C9.11473 21.3747 9.96074 22.943 11.2039 24.1743C12.447 25.4057 14.0314 26.2448 15.7568 26.5856C17.4822 26.9264 19.271 26.7536 20.8971 26.089C22.5231 25.4244 23.9133 24.2978 24.892 22.8518C25.8706 21.4058 26.3938 19.7053 26.3951 17.9653C26.3951 15.6325 25.4591 13.3951 23.7925 11.7444C22.1259 10.0936 19.865 9.16432 17.5062 9.16065ZM17.4431 23.6432C16.3046 23.6336 15.1945 23.2902 14.2534 22.6564C13.3122 22.0227 12.5823 21.1272 12.1559 20.0831C11.7295 19.039 11.6259 17.8934 11.858 16.791C12.0902 15.6887 12.6477 14.6792 13.4602 13.8903C14.2726 13.1014 15.3034 12.5685 16.4221 12.3591C17.5408 12.1497 18.6972 12.2731 19.745 12.7138C20.7927 13.1545 21.6848 13.8926 22.3083 14.8348C22.9317 15.777 23.2586 16.8809 23.2476 18.0069C23.2327 19.5152 22.6131 20.9561 21.5248 22.0129C20.4364 23.0698 18.9684 23.6561 17.4431 23.6432ZM25.8614 6.82601C26.1504 6.74181 26.4543 6.71998 26.7525 6.76201C27.2538 6.83265 27.7125 7.0798 28.0444 7.45805C28.3762 7.83631 28.5589 8.32027 28.5589 8.82104C28.5589 9.32182 28.3762 9.80578 28.0444 10.184C27.7125 10.5623 27.2538 10.8094 26.7525 10.8801C26.4543 10.9221 26.1504 10.9003 25.8614 10.8161C25.5725 10.7319 25.3052 10.5873 25.0776 10.392C24.8501 10.1968 24.6676 9.95548 24.5426 9.68444C24.4175 9.4134 24.3528 9.11896 24.3528 8.82104C24.3528 8.52312 24.4175 8.22868 24.5426 7.95765C24.6676 7.68661 24.8501 7.44531 25.0776 7.25007C25.3052 7.05483 25.5725 6.91022 25.8614 6.82601Z" fill="white"/>
</svg>
