<svg width="33" height="32" viewBox="0 0 33 32" fill="none" xmlns="http://www.w3.org/2000/svg">
<path id="Union" fill-rule="evenodd" clip-rule="evenodd" d="M3.85617 0.151611C3.0947 0.151613 2.35034 0.375013 1.71729 0.793539C1.08423 1.21206 0.590945 1.8069 0.299868 2.50278C0.00879147 3.19866 -0.0670447 3.96429 0.0820337 4.70279C0.231112 5.44129 0.598361 6.11946 1.13727 6.65147C1.67621 7.18349 2.36264 7.54543 3.10965 7.69151C3.85666 7.83758 4.63071 7.76122 5.3338 7.47208C6.03693 7.18294 6.63751 6.69403 7.05954 6.06721C7.4816 5.44039 7.70615 4.70384 7.70474 3.95077C7.70291 2.94253 7.2966 1.97622 6.57505 1.26394C5.85352 0.551655 4.87567 0.151609 3.85617 0.151611ZM7.17911 10.6409H0.53345V31.7581H7.17911V10.6409ZM20.4501 10.9656C21.5609 10.365 22.8155 10.0732 24.0805 10.121C30.7963 10.121 32.0371 14.4887 32.0161 20.1805V31.7582H25.3845V21.4908V21.476C25.3845 19.0309 25.3845 15.896 21.9354 15.896C18.4794 15.896 17.9536 18.5444 17.9536 21.3175V31.7582H11.322V10.641H17.6873V13.532H17.7714C18.4136 12.453 19.3392 11.5661 20.4501 10.9656Z" fill="white"/>
</svg>
