<svg width="30" height="38" viewBox="0 0 30 38" fill="none" xmlns="http://www.w3.org/2000/svg">
<path id="Vector" d="M17.6635 0.794613C12.1115 0.170664 6.03363 2.22276 2.76688 7.29062C-0.184407 11.8663 0.453523 17.2669 2.68276 19.9984C3.32375 20.7957 4.16145 21.4165 5.11528 21.8009C5.21122 21.8559 5.319 21.8876 5.42972 21.8934C5.54044 21.8991 5.65094 21.8789 5.7522 21.8342C5.85347 21.7896 5.94258 21.7218 6.01222 21.6364C6.08185 21.5511 6.13001 21.4507 6.15277 21.3434C6.33504 20.6917 6.48227 20.0331 6.65753 19.3814C6.76268 18.9585 6.51031 18.6881 6.17382 18.2929C3.545 15.0345 4.86993 7.89377 10.6884 5.23852C15.7638 2.91604 23.7624 4.47592 24.197 11.6929C24.4143 15.3118 23.2647 20.4144 20.2924 22.5497C17.0747 24.8583 13.2822 22.6051 14.1164 19.4438C15.0908 15.603 16.3596 13.0102 15.8759 11.0274C15.0978 7.82444 10.6463 8.12255 9.40551 12.0049C8.86008 13.7515 8.93427 15.63 9.61581 17.3293C9.68912 17.4776 9.7113 17.6457 9.67892 17.8076C6.94494 29.1982 6.67855 29.9192 6.60845 32.0198C6.56608 33.629 6.66458 35.2388 6.90287 36.8312C6.90287 36.9976 6.90289 37.1778 7.14123 37.2194C7.37958 37.261 7.42162 37.1016 7.51275 36.9837C8.34111 35.9346 9.09087 34.827 9.75602 33.6698C11.1581 31.2295 11.2983 30.0648 12.6582 24.8028C12.6582 24.7127 12.7073 24.6295 12.7424 24.5186C12.9291 24.7746 13.1303 25.02 13.3452 25.2534C16.1493 28.1028 22.3043 27.7908 26.0828 23.1736C29.3706 19.1387 29.5879 13.4261 29.2654 11.1106C28.4802 6.01499 24.2952 1.53642 17.6635 0.794613Z" fill="white"/>
</svg>
