<svg width="37" height="36" viewBox="0 0 37 36" fill="none" xmlns="http://www.w3.org/2000/svg">
<path id="Vector" d="M35.2879 25.0506H35.0145C34.713 25.0506 33.8088 25.0506 32.1543 23.8165C30.6191 22.7792 29.479 21.2637 28.9156 19.5113C29.0558 19.1577 29.8831 18.818 30.5 18.6308L30.9346 18.4644C32.2525 17.9514 33.0376 17.2581 33.2059 16.3846C33.2745 16.0502 33.2543 15.704 33.1474 15.3796C33.0406 15.0552 32.8506 14.7638 32.596 14.5335C32.3504 14.2671 32.0517 14.0538 31.7187 13.9071C31.3857 13.7603 31.0257 13.6833 30.6612 13.6808C29.9863 13.7155 29.3299 13.9105 28.7474 14.2493V10.3323C28.7437 7.7188 27.6923 5.2134 25.8236 3.36539C23.955 1.51737 21.4215 0.477545 18.7789 0.473877H18.4494C15.8067 0.477545 13.2734 1.51737 11.4047 3.36539C9.53607 5.2134 8.48464 7.7188 8.48093 10.3323V14.2632C7.89844 13.9244 7.242 13.7294 6.56716 13.6947C6.20263 13.6972 5.84253 13.7742 5.50956 13.921C5.17659 14.0677 4.87794 14.281 4.63234 14.5474C4.37774 14.7776 4.18774 15.0691 4.08086 15.3935C3.97399 15.7179 3.95387 16.0641 4.02246 16.3985C4.21174 17.2651 4.97584 17.9583 6.29375 18.4783L6.72838 18.6447C7.34528 18.8665 8.17249 19.1716 8.31269 19.5251C7.74936 21.2775 6.60926 22.7931 5.07399 23.8304C3.41958 25.0644 2.51526 25.0644 2.21382 25.0644H1.94041C1.62573 25.0529 1.3163 25.1465 1.06196 25.3301C0.807618 25.5137 0.623183 25.7767 0.538375 26.0766C0.222917 27.3245 0.776732 28.8497 3.26535 29.543C3.96637 29.7094 4.45708 29.7995 4.84264 29.8619L5.31231 29.9451C5.32209 29.9758 5.33379 30.0059 5.34735 30.0352C5.44282 30.2843 5.52245 30.5389 5.58572 30.7978C5.62681 31.2272 5.82578 31.6267 6.14494 31.9206C6.4641 32.2145 6.88123 32.3824 7.31721 32.3924C7.61533 32.3772 7.91249 32.3471 8.20752 32.3022C9.01541 32.1807 9.83015 32.1089 10.6471 32.0873C11.0333 32.0652 11.4204 32.1122 11.7897 32.226C12.1877 32.4498 12.5653 32.7073 12.9183 32.9955C14.2573 33.9938 16.087 35.3596 18.5967 35.4774H18.7158C21.2254 35.3596 23.0551 33.9938 24.394 32.9955C24.7471 32.7073 25.1247 32.4498 25.5226 32.226C25.892 32.1122 26.2791 32.0652 26.6653 32.0873C27.4822 32.1089 28.297 32.1807 29.1049 32.3022C29.4 32.3471 29.697 32.3772 29.9952 32.3924C30.4311 32.3824 30.8483 32.2145 31.1674 31.9206C31.4866 31.6267 31.6856 31.2272 31.7267 30.7978C31.79 30.5389 31.8696 30.2843 31.9651 30.0352C31.9651 30.0352 31.9651 29.9728 31.9651 29.9451L32.4348 29.8619C32.8203 29.7995 33.3391 29.7094 34.0121 29.543C36.5007 28.9121 37.0474 27.3592 36.7389 26.0766C36.6551 25.7656 36.4645 25.4931 36.1998 25.3059C35.935 25.1187 35.6126 25.0284 35.2879 25.0506ZM12.2454 31.0405C13.1212 31.5674 13.9639 32.1462 14.769 32.7737C13.9627 32.1477 13.1201 31.569 12.2454 31.0405Z" fill="white"/>
</svg>
