<svg width="35" height="39" viewBox="0 0 35 39" fill="none" xmlns="http://www.w3.org/2000/svg">
<path id="Vector" d="M34.4725 11.1885C34.2552 11.1885 34.0379 11.1885 33.8206 11.1885C33.4701 11.1885 33.1196 11.0845 32.7761 11.0498C32.7761 10.6685 32.7761 10.2803 32.7761 9.89899C32.7761 9.7326 32.7761 9.72567 32.6008 9.7326C32.1825 9.7307 31.7651 9.69359 31.3531 9.62168C30.3023 9.45227 29.2908 9.09769 28.3667 8.57483C28.3221 8.54634 28.2719 8.52744 28.2195 8.51937L27.9812 8.31832C27.9812 8.25592 27.9181 8.22126 27.883 8.17273C27.5364 7.77346 27.2267 7.34422 26.9577 6.89017C26.1955 5.63395 25.7955 4.19546 25.801 2.7305V2.61958C25.801 2.52252 25.801 2.48786 25.6748 2.48786C25.135 2.48786 24.5952 2.48786 24.0554 2.48786C23.9807 2.0576 23.9548 1.62043 23.9783 1.18449C23.9783 0.990375 23.9783 0.990376 23.775 0.983443H17.9215C17.5359 0.983443 17.5921 0.934913 17.5921 1.31622V25.8236C17.5992 26.1276 17.5781 26.4316 17.5289 26.7318C17.4105 27.4419 17.1474 28.1208 16.7556 28.7273C16.3637 29.3337 15.8513 29.8551 15.2494 30.2597C14.6475 30.6643 13.9688 30.9436 13.2544 31.0809C12.54 31.2181 11.8048 31.2102 11.0936 31.0578C10.6646 30.9561 10.2449 30.8193 9.83878 30.6488L9.74063 30.5587C9.74063 30.5032 9.67754 30.4547 9.6495 30.4061C9.25185 29.8469 8.97026 29.2152 8.82106 28.5476C8.67185 27.88 8.65799 27.1898 8.78024 26.5168C8.9857 25.2265 9.68306 24.063 10.729 23.2654C11.3021 22.8061 11.9667 22.4718 12.6795 22.2842C13.3922 22.0966 14.137 22.0601 14.8651 22.1769C15.1315 22.1769 15.3908 22.2879 15.6502 22.3364C15.6738 22.2643 15.6738 22.1866 15.6502 22.1145V16.1177C15.6502 16.0414 15.6502 15.9998 15.5381 15.986C14.9665 15.9122 14.3895 15.8867 13.8135 15.9097C13.8135 15.4868 13.8135 15.0639 13.8135 14.641C13.8135 14.5162 13.7505 14.4954 13.6523 14.4816C12.8845 14.3927 12.1099 14.3764 11.3389 14.433C8.54534 14.641 5.92075 15.8364 3.94495 17.8005C1.96914 19.7647 0.774119 22.3665 0.578311 25.1303C0.529235 25.7302 0.529235 26.333 0.578311 26.9328C0.719877 28.5072 1.18824 30.0358 1.95416 31.4231C2.72009 32.8104 3.7671 34.0266 5.02976 34.9956C5.21212 35.1621 5.41747 35.3022 5.63965 35.4116L5.92709 35.6681C5.97486 35.7246 6.02636 35.7779 6.08129 35.8276C8.04183 37.6557 10.585 38.7514 13.2738 38.9265C14.8872 39.0553 16.5099 38.8426 18.0337 38.3026C20.5193 37.4348 22.6295 35.7515 24.0134 33.5328C25.2011 31.6978 25.8268 29.5622 25.815 27.3834C25.815 23.2238 25.815 19.0641 25.815 14.9045V14.641L26.0323 14.7797C28.0112 16.1228 30.2839 16.9829 32.664 17.2893C33.259 17.3666 33.8584 17.4059 34.4586 17.4072C34.6408 17.4072 34.6408 17.4072 34.6408 17.2408V11.3341C34.6268 11.2231 34.5847 11.1885 34.4725 11.1885Z" fill="white"/>
</svg>
