<svg width="39" height="32" viewBox="0 0 39 32" fill="none" xmlns="http://www.w3.org/2000/svg">
<path id="Vector" d="M33.9726 5.62163C35.5283 4.65633 36.6957 3.18563 37.2744 1.46196H37.2183C37.1837 1.47391 37.1507 1.49022 37.1202 1.5105C35.7248 2.30385 34.2138 2.87913 32.6407 3.21596C32.567 3.23843 32.4883 3.23855 32.4145 3.2163C32.3408 3.19406 32.2755 3.15047 32.2271 3.09117C31.359 2.22421 30.2883 1.58218 29.1096 1.22184C27.9309 0.861497 26.6806 0.79396 25.4693 1.0252C23.5205 1.35619 21.7747 2.41488 20.5927 3.98251C19.4107 5.55014 18.8828 7.50693 19.118 9.44852C19.1531 9.71197 19.2022 9.98234 19.2442 10.2805C16.1829 10.1212 13.1891 9.33093 10.4548 7.96035C7.72043 6.58977 5.30596 4.66913 3.36616 2.32163C2.40087 3.99385 2.1058 5.9636 2.53944 7.84076C2.97307 9.71792 4.10375 11.3656 5.70754 12.4573C4.50683 12.4251 3.33138 12.1089 2.27955 11.5353C2.25072 12.9646 2.6429 14.3713 3.40822 15.584C3.95891 16.4678 4.68626 17.2312 5.54572 17.8272C6.40518 18.4233 7.37866 18.8395 8.40649 19.0504L8.30132 19.0989C7.22169 19.3735 6.09372 19.4067 4.99951 19.196C5.48998 20.7046 6.44346 22.0245 7.72742 22.9725C9.01138 23.9205 10.562 24.4494 12.1639 24.4857C11.0457 25.3444 9.81164 26.0444 8.49758 26.5655C6.05927 27.5583 3.40555 27.921 0.786377 27.6193L0.968649 27.7302C4.64991 30.0171 8.9411 31.1571 13.2856 31.0025C14.7287 30.9695 16.1653 30.8001 17.5758 30.4964C21.6151 29.6505 25.302 27.6184 28.1542 24.666C29.8731 22.9101 31.2808 20.8804 32.3182 18.6622C33.3398 16.5232 34.0095 14.2366 34.3021 11.8889C34.4422 10.7668 34.4914 9.63547 34.4493 8.50566C34.4451 8.45758 34.4548 8.40929 34.4771 8.36637C34.4994 8.32345 34.5335 8.28762 34.5755 8.26302C35.6224 7.51228 36.5651 6.6289 37.3796 5.6355C37.688 5.26113 37.9684 4.87289 38.2629 4.49159V4.45692C36.8997 5.05515 35.4536 5.44776 33.9726 5.62163Z" fill="white"/>
</svg>
