<svg width="37" height="36" viewBox="0 0 37 36" fill="none" xmlns="http://www.w3.org/2000/svg">
<path id="Union" fill-rule="evenodd" clip-rule="evenodd" d="M7.10198 4.09102C9.23871 2.35733 11.7507 1.13389 14.4429 0.515659C16.8032 -0.0373137 19.2526 -0.110189 21.6423 0.301457C24.032 0.713103 26.3122 1.60068 28.3445 2.91033C30.3767 4.21997 32.1188 5.92436 33.4647 7.92005C34.8107 9.91574 35.7326 12.1611 36.1745 14.5199C36.7962 17.7788 36.4852 21.1446 35.2765 24.2381C34.0678 27.3316 32.0094 30.0297 29.3333 32.0283C26.6572 34.0268 23.4698 35.2465 20.1304 35.5497C16.791 35.8529 13.4324 35.2277 10.433 33.7444C10.0855 33.5913 9.69801 33.5501 9.32544 33.6266C7.09231 34.1828 5.20943 34.6733 3.74052 35.0561C2.07844 35.4891 0.946346 35.784 0.436523 35.8797C0.6398 35.1449 0.822049 34.4517 1.0043 33.7585L1.00435 33.7583C1.14835 33.2389 1.29317 32.7196 1.43801 32.2001C1.89253 30.57 2.34732 28.9389 2.77793 27.3039C2.85818 26.9546 2.81872 26.5887 2.66576 26.264C1.35763 23.8562 0.628108 21.1827 0.533827 18.451C0.439547 15.7193 0.983039 13.0028 2.12212 10.5124C3.26121 8.02201 4.96525 5.82471 7.10198 4.09102ZM10.9378 30.6524C13.9266 32.4102 17.4469 33.0682 20.8782 32.5104H20.8852C24.0373 32.0208 26.9497 30.5505 29.1995 28.3129C31.4493 26.0753 32.9194 23.1869 33.3966 20.0669C33.8738 16.9469 33.3331 13.7576 31.8531 10.9621C30.3731 8.16662 28.0307 5.91031 25.166 4.52073C22.3013 3.13114 19.0634 2.68058 15.9222 3.23445C12.781 3.78833 9.89997 5.31781 7.6974 7.60089C5.49482 9.88397 4.08528 12.8018 3.67338 15.9309C3.26147 19.06 3.86864 22.2375 5.40675 25.0022C5.68901 25.4107 5.86705 25.8808 5.92565 26.3721C5.98425 26.8635 5.92166 27.3616 5.74323 27.8239C5.44946 28.654 5.22702 29.5239 4.99752 30.4216C4.88201 30.8733 4.76471 31.3321 4.63563 31.7963C5.01812 31.6984 5.39451 31.6027 5.7659 31.5083C7.13024 31.1615 8.42712 30.8318 9.711 30.4722C9.91631 30.4112 10.1327 30.3957 10.3447 30.4269C10.5568 30.458 10.7593 30.535 10.9378 30.6524ZM22.04 21.1513C22.8456 20.1357 23.0602 19.8651 23.6683 20.1491C24.1612 20.3825 24.5923 20.5854 24.9694 20.763C27.3709 21.8935 27.5828 21.9933 27.601 22.3468C27.7202 25.3764 24.9161 26.4649 23.2126 26.3401C19.7005 26.2153 14.1134 23.4769 10.2788 16.9046C8.91887 14.5682 9.11515 11.8991 11.1131 10.0689C11.7749 9.45527 12.5994 9.5926 13.38 9.7226L13.4194 9.72917C13.6157 9.7569 13.819 10.055 13.9171 10.2699C14.4219 11.4138 14.9266 12.5647 15.3682 13.7363C15.6066 14.3603 15.172 14.9426 14.2676 15.9756C14.1253 16.1 14.0339 16.2716 14.0107 16.458C13.9874 16.6445 14.0339 16.8329 14.1415 16.9878C15.5422 19.4113 17.7461 21.2822 20.3805 22.2844C20.5423 22.3619 20.7269 22.3793 20.9006 22.3335C21.0743 22.2877 21.2256 22.1817 21.3269 22.0348C21.6097 21.6937 21.8426 21.4002 22.04 21.1513Z" fill="white"/>
</svg>
