<svg width="36" height="24" viewBox="0 0 36 24" fill="none" xmlns="http://www.w3.org/2000/svg">
<path id="Vector" d="M31.7421 0.651073C29.639 -0.104599 11.2653 -0.194725 5.32768 0.44309C4.77109 0.493517 4.23028 0.653142 3.73678 0.912639C3.24329 1.17214 2.80703 1.5263 2.45352 1.95444C0.245311 4.51956 0.58881 17.5393 1.7525 20.6729C1.95549 21.275 2.30134 21.8201 2.76116 22.2628C3.22097 22.7055 3.78136 23.0328 4.39536 23.2173C7.31159 24.167 30.1157 24.1809 32.3309 23.0301C33.1456 22.6374 33.8008 21.9821 34.1887 21.1721C35.6538 18.0731 35.5907 6.36368 34.3569 3.14687C34.1415 2.5617 33.794 2.03278 33.341 1.60032C32.8879 1.16785 32.341 0.843213 31.7421 0.651073ZM13.81 17.0887V6.08637L24.4865 11.5841L13.81 17.0887Z" fill="white"/>
</svg>
