<svg width="26" height="25" viewBox="0 0 26 25" fill="none" xmlns="http://www.w3.org/2000/svg">
<g clip-path="url(#clip0_1130_14)">
<path d="M21.3964 3.63896C19.0272 1.30103 15.8307 -0.0067802 12.5022 2.64366e-05C9.19438 0.00935398 6.02475 1.32782 3.68617 3.66723C1.34758 6.00665 0.0302367 9.17673 0.0220795 12.4846C0.0293946 15.8055 1.35028 18.9886 3.69634 21.339C4.84872 22.5018 6.22051 23.4241 7.73214 24.0526C9.24377 24.6811 10.8651 25.0031 12.5022 25C15.84 25.0056 19.0441 23.6893 21.4141 21.339C23.7506 18.9862 25.0618 15.8049 25.0618 12.489C25.0618 9.17311 23.7506 5.99178 21.4141 3.63896H21.3964ZM19.2281 19.1574C18.3451 20.0387 17.2959 20.7358 16.1413 21.2081C14.9866 21.6804 13.7497 21.9185 12.5022 21.9087C10.6397 21.9062 8.81985 21.3506 7.27356 20.3124C5.72726 19.2741 4.52417 17.8 3.81689 16.077C3.10962 14.354 2.93002 12.4597 3.30089 10.6345C3.67176 8.80927 4.57639 7.13532 5.90002 5.82497C6.76592 4.95654 7.79503 4.26794 8.9281 3.79879C10.0612 3.32964 11.2758 3.08922 12.5022 3.09135C14.366 3.08551 16.1897 3.63217 17.7429 4.66227C19.2961 5.69237 20.5092 7.15969 21.2289 8.87889C21.9487 10.5981 22.1427 12.492 21.7866 14.3215C21.4305 16.1509 20.5401 17.8337 19.2281 19.1574Z" fill="#414042"/>
<path d="M18.2432 12.0734L13.2485 12.0204V6.66357C13.2394 6.38513 13.1223 6.12116 12.922 5.92749C12.7217 5.73382 12.454 5.62562 12.1754 5.62577C12.0362 5.62038 11.8974 5.64331 11.7673 5.69316C11.6373 5.74301 11.5187 5.81875 11.4188 5.91578C11.3189 6.01281 11.2397 6.12912 11.186 6.25766C11.1324 6.3862 11.1054 6.52429 11.1067 6.66357V13.0494C11.1006 13.1908 11.1236 13.332 11.1742 13.4643C11.2247 13.5965 11.3018 13.717 11.4007 13.8184C11.4995 13.9197 11.6181 13.9998 11.7491 14.0536C11.88 14.1074 12.0206 14.1339 12.1622 14.1313H18.2388C18.5227 14.1302 18.7945 14.0166 18.9948 13.8155C19.1951 13.6143 19.3075 13.3421 19.3075 13.0582C19.2949 12.7872 19.1762 12.532 18.9771 12.3478C18.778 12.1635 18.5144 12.065 18.2432 12.0734Z" fill="#414042"/>
</g>
<defs>
<clipPath id="clip0_1130_14">
<rect width="25.0751" height="25" fill="white"/>
</clipPath>
</defs>
</svg>
