<svg width="80" height="80" viewBox="0 0 80 80" fill="none" xmlns="http://www.w3.org/2000/svg">
<g id="Gmail Icon-01 1" clip-path="url(#clip0_1172_6)">
<path id="Vector" d="M40.0029 80.0059C62.096 80.0059 80.0059 62.096 80.0059 40.0029C80.0059 17.9099 62.096 0 40.0029 0C17.9099 0 0 17.9099 0 40.0029C0 62.096 17.9099 80.0059 40.0029 80.0059Z" fill="#414042"/>
<path id="Vector_2" d="M65.4812 31.6357V55.0282C65.4812 55.0282 65.4341 55.0813 65.4282 55.1107C64.7506 57.8094 63.1125 59.0939 60.3255 59.0939H19.474C18.8259 59.1168 18.1798 59.0109 17.5729 58.7823C16.966 58.5538 16.4106 58.207 15.9386 57.7623C15.203 57.0123 14.7067 56.0607 14.5127 55.0282V31.6357C14.5885 31.662 14.6615 31.6955 14.7307 31.7359L35.3538 45.5004C38.4414 47.5568 41.4995 47.5627 44.5871 45.5004C50.7662 41.4032 56.9197 37.3042 63.0477 33.2031C63.8726 32.6728 64.6799 32.1602 65.4812 31.6357Z" fill="white"/>
<path id="Vector_3" d="M14.5186 26.2624V24.9661C14.601 24.6832 14.6718 24.3768 14.766 24.1176C15.4436 22.1024 17.2172 20.9062 19.527 20.9062H60.9265C61.8853 20.9387 62.8114 21.263 63.5811 21.8358C64.3507 22.4086 64.9273 23.2025 65.2337 24.1117C65.328 24.3945 65.3987 24.7009 65.4812 24.9602V26.2565C65.3548 26.9044 65.1019 27.521 64.7369 28.071C64.3719 28.621 63.902 29.0937 63.3541 29.4619C56.4719 34.0108 49.6034 38.5773 42.7487 43.1615C41.9492 43.757 40.979 44.0786 39.9822 44.0786C38.9854 44.0786 38.0152 43.757 37.2158 43.1615L16.6516 29.4265C16.1215 29.0978 15.6655 28.6625 15.3125 28.1483C14.9595 27.634 14.7172 27.052 14.601 26.4391C14.5821 26.3766 14.5543 26.3171 14.5186 26.2624Z" fill="white"/>
</g>
<defs>
<clipPath id="clip0_1172_6">
<rect width="80" height="80" fill="white"/>
</clipPath>
</defs>
</svg>
