<svg width="710" height="382" viewBox="0 0 710 382" fill="none" xmlns="http://www.w3.org/2000/svg">
<path opacity="0.5" d="M688.85 378.32C688.8 378.42 688.74 378.52 688.69 378.62C688.3 379.32 687.9 380.03 687.48 380.74L55.5099 380.55C55.5099 380.55 54.8999 379.86 53.7899 378.55C53.7299 378.48 53.6599 378.4 53.5999 378.32C50.7799 374.93 45.0999 367.8 38.4499 357.74C38.4499 357.74 38.4499 357.73 38.4399 357.73C20.7999 331.04 -3.66008 283.77 0.459921 231.31C1.61992 216.5 5.05992 201.28 11.5699 185.99C31.3099 139.61 90.2099 108.35 143.26 107.72C163.8 107.47 183.46 111.82 199.64 121.66C202.51 123.4 206.12 124.75 210.31 125.67C213.85 126.45 217.8 126.92 222.09 127.07C256.55 128.28 312.59 108.87 345.83 60.0101C363.48 34.0701 390.58 17.0801 421.72 8.24007C423.17 7.83007 424.63 7.43007 426.1 7.06007C433.18 5.24007 440.46 3.83006 447.86 2.82006C449.19 2.64006 450.53 2.47006 451.87 2.32006C484.73 -1.48994 519.93 2.45006 552.22 13.3501C556.47 14.7801 560.67 16.3401 564.81 18.0201C625.57 42.6201 672.84 92.8701 668.68 163.02C668.52 165.79 668.27 168.6 667.94 171.44C667.32 176.84 666.39 182.36 665.15 187.98C664.42 191.29 663.58 194.65 662.62 198.04C637.59 286.95 737.7 290.96 688.85 378.32Z" fill="#D8E9FF"/>
<path d="M688.85 378.32L196.94 378.37L201.18 231.36V191.41H219.58V160.21H256.28V186.69H267.49V137.72H269.93V134.3H270.37V137.72H279.22V134.3H279.66V137.72H292.19V134.3H292.63V137.72H300.52V134.3H300.95V137.72H304.19V183.43H316.58V176.04L331.19 176.11V164.13H334.13V161.76H334.52V164.13H345.8V164.14H348.06V161.77H348.45V164.14H351.17V187.96H368.56V196.73H378.23V191.64H387.2V171.43H391.67V162H392.34V171.43H403.06V153.76H404.11V171.43H411.2V171.18H411.19V168.94H411.2V166.82H411.19V163.29H411.2V161.04H411.19V157.51H411.2V155.26H411.19V151.73H411.2V149.29H411.19V145.76H411.2V142.66H411.19V139.13H411.2V136.79H413.31V134.15H413.65V136.79H429.3V134.15H429.64V136.79H432.5V155.27L434.51 155.28V155.27H434.49V151.74H434.51V149.3H434.49V145.77H434.51V143.34H434.49V139.81H434.51V139.8H453.49V139.81H456.75C456.92 139.9 457.09 140 457.26 140.09V163.65H460.75V160.25H500.81V186.73H513.04V137.76H515.7V134.34H516.18V137.76H525.84V134.34H526.32V137.76H540V134.34H540.48V137.76H549.09V134.34H549.57V137.76H553.11V183.47H566.63V176.08L582.57 176.15V164.17H585.78V161.8H586.21V164.17H598.52H600.98V161.8H601.4V164.17H604.37V188H623.35V196.77H633.91V191.68H643.7V171.46H648.58V162H649.32V171.43H661.02V153.76H662.17V171.43H667.92C667.3 176.83 666.37 182.35 665.13 187.97C664.4 191.28 663.56 194.64 662.6 198.03C637.59 286.95 737.7 290.96 688.85 378.32Z" fill="#DCEAFB"/>
<path d="M564.82 18.0098V378.32H552.23V13.3398C556.48 14.7798 560.68 16.3298 564.82 18.0098Z" fill="#A8CCFF"/>
<path d="M210.31 125.66V378.55H53.7999C53.7399 378.48 53.6699 378.4 53.6099 378.32C50.7899 374.93 45.1099 367.8 38.4599 357.74C38.4599 357.74 38.4599 357.73 38.4499 357.73C20.7999 331.04 -3.66008 283.77 0.459917 231.31C1.61992 216.5 5.05992 201.28 11.5699 185.99C31.3099 139.61 90.2099 108.35 143.26 107.72C163.6 107.94 182.99 112.34 199.1 121.66C202.11 123.4 205.9 124.74 210.31 125.66Z" fill="#C9E0FF"/>
<path d="M451.87 2.31055V46.6805C451.87 50.1405 451.03 52.9605 450 52.9605H449.73C448.7 52.9605 447.86 50.1405 447.86 46.6805V2.81055C449.19 2.63055 450.53 2.46055 451.87 2.31055Z" fill="#97C0F8"/>
<path d="M448.82 42.2803C434.2 42.2803 422.34 54.8203 422.34 70.2803H475.3C475.3 54.8203 463.44 42.2803 448.82 42.2803Z" fill="#FF9223"/>
<path d="M450.93 42.6309C450.17 42.4609 449.39 42.3809 448.6 42.3809C439.07 42.3809 431.35 54.8809 431.35 70.2909H436C436 56.1409 442.5 44.4609 450.93 42.6309Z" fill="#FFC180"/>
<path d="M623.2 337.02C623.2 337.02 616.15 328.8 622.77 323.58C622.77 323.58 627.6 320.66 631.54 320.89C631.54 320.89 625.96 330.25 627.77 331.18C629.58 332.11 633.24 320.31 633.24 320.31C633.24 320.31 644.23 319.24 647.77 320.94C647.77 320.94 638.37 328.63 640.35 329.09C642.33 329.55 652.48 322 652.48 322C652.48 322 662.71 323.74 662.16 329.98C661.61 336.22 658.09 338.15 656.54 337.98C654.99 337.81 645.93 334.35 645.73 335.62C645.53 336.89 650.99 341.04 654.81 341.23C654.81 341.23 647.6 349.18 642.81 346.89C638.02 344.59 637.61 340.96 634.62 339.59C631.63 338.23 629.08 338.23 630.32 339.62C631.55 341.01 636.96 342.36 638.67 345.39C640.38 348.41 641.91 350.45 636.95 349.7C631.99 348.95 623.93 345.33 623.58 341.17C623.2 337.02 623.2 337.02 623.2 337.02Z" fill="#6CA3EA"/>
<path d="M657.12 330.15C657.12 330.15 629.34 329.08 623.2 337.03C623.2 337.03 621.84 341.09 617.67 344.79L617.02 346.56C617.02 346.56 621.83 341.48 623.56 341.18C623.56 341.18 620.86 331.33 657.12 330.15Z" fill="#6CA3EA"/>
<path d="M617.67 344.79C617.67 344.79 611.71 349.199 611.29 357.079L612.37 357.179C612.37 357.179 614.27 349.03 617.72 345.85C621.16 342.65 617.67 344.79 617.67 344.79Z" fill="#6CA3EA"/>
<path d="M598.56 326.68C598.56 326.68 609.77 320.4 604.54 311.88C604.54 311.88 600.36 306.65 595.87 305.3C595.87 305.3 598.26 318 595.87 318.3C593.48 318.6 594.23 303.95 594.23 303.95C594.23 303.95 582.42 298.27 577.79 298.72C577.79 298.72 585.11 311.13 582.72 310.83C580.33 310.53 572.11 297.98 572.11 297.98C572.11 297.98 560 295.74 558.06 302.91C556.12 310.08 559.26 313.67 561.05 314.12C562.84 314.57 574.35 314.42 574.05 315.91C573.75 317.4 565.98 319.8 561.64 318.45C561.64 318.45 566.42 330.26 572.7 329.66C578.98 329.06 580.92 325.18 584.81 324.88C588.7 324.58 591.54 325.63 589.59 326.67C587.65 327.72 581.07 327.01 577.93 329.68C574.79 332.35 572.25 333.99 578.08 335.19C583.91 336.39 594.37 335.64 596.46 331.15C598.56 326.68 598.56 326.68 598.56 326.68Z" fill="#6CA3EA"/>
<path d="M563.59 305.16C563.59 305.16 594.98 315.32 598.56 326.68C598.56 326.68 598.41 331.76 601.55 337.59V339.83C601.55 339.83 598.26 332.21 596.47 331.16C596.47 331.17 603.5 321.3 563.59 305.16Z" fill="#6CA3EA"/>
<path d="M601.55 337.591C601.55 337.591 606.39 344.941 603.63 353.891L602.38 353.561C602.38 353.561 603.59 343.711 601.06 338.751C598.53 333.791 601.55 337.591 601.55 337.591Z" fill="#6CA3EA"/>
<path d="M616.4 318.03C616.4 318.03 601.62 309.76 608.52 298.53C608.52 298.53 614.04 291.63 619.95 289.86C619.95 289.86 616.8 306.61 619.95 307C623.1 307.39 622.12 288.09 622.12 288.09C622.12 288.09 637.68 280.6 643.79 281.19C643.79 281.19 634.14 297.54 637.29 297.15C640.44 296.76 651.28 280.21 651.28 280.21C651.28 280.21 667.24 277.25 669.8 286.71C672.36 296.17 668.22 300.89 665.86 301.49C663.5 302.08 648.33 301.88 648.72 303.85C649.11 305.82 659.36 308.97 665.07 307.2C665.07 307.2 658.77 322.76 650.49 321.98C642.22 321.19 639.65 316.07 634.53 315.68C629.41 315.29 625.66 316.67 628.23 318.04C630.79 319.42 639.46 318.49 643.6 322.01C647.74 325.53 651.09 327.69 643.4 329.27C635.72 330.85 621.93 329.86 619.17 323.95C616.41 318.04 616.4 318.03 616.4 318.03Z" fill="#97C0F8"/>
<path d="M662.5 289.66C662.5 289.66 621.13 303.06 616.4 318.03C616.4 318.03 616.6 324.73 612.46 332.41V335.37C612.46 335.37 616.79 325.32 619.16 323.94C619.16 323.94 609.9 310.93 662.5 289.66Z" fill="#97C0F8"/>
<path d="M612.46 332.41C612.46 332.41 606.08 342.1 609.72 353.89L611.36 353.45C611.36 353.45 609.77 340.46 613.1 333.93C616.44 327.39 612.46 332.41 612.46 332.41Z" fill="#97C0F8"/>
<path d="M615.9 379.47C631.89 379.47 644.84 366.51 644.84 350.53H586.95C586.96 366.51 599.91 379.47 615.9 379.47Z" fill="#97C0F8"/>
<path d="M623.02 379.25C621.84 379.4 620.64 379.47 619.42 379.47C603.44 379.47 590.48 366.51 590.48 350.53H597.67C597.67 365.29 608.73 377.47 623.02 379.25Z" fill="#A8CCFF"/>
<path d="M645.5 350.521H586V351.411H645.5V350.521Z" fill="#97C0F8"/>
<path d="M481.15 378.04L452.71 260L454.7 255.35L482.88 378.03C482.95 378.34 482.71 378.64 482.39 378.64H481.92C481.55 378.64 481.24 378.4 481.15 378.04Z" fill="#6CA3EA"/>
<path d="M352.8 378.64C352.22 378.64 351.77 378.12 351.87 377.54L360.25 326.77H363.84L353.85 377.79C353.74 378.29 353.3 378.64 352.8 378.64Z" fill="#6CA3EA"/>
<path d="M433.15 378.64C432.57 378.64 432.12 378.12 432.22 377.54L440.6 326.77H444.19L434.2 377.79C434.1 378.29 433.66 378.64 433.15 378.64Z" fill="#6CA3EA"/>
<path d="M452.64 326.88H352.59L373.32 196.93H473.37L452.64 326.88Z" fill="#F3FAFF"/>
<path d="M460.13 325.88H345.23V329.7H460.13V325.88Z" fill="#6CA3EA"/>
<path d="M412.94 224.119C412.86 225.149 412.71 226.159 412.49 227.139C410.4 236.429 402.14 243.539 392.79 243.559C382.45 243.579 374.71 234.899 375.5 224.179C376.29 213.459 385.31 204.759 395.65 204.739C397.82 204.739 399.87 205.109 401.75 205.819C402.6 206.129 403.41 206.509 404.19 206.949C405.86 207.899 407.35 209.119 408.61 210.569C409.31 211.379 409.94 212.249 410.48 213.179C410.8 213.719 411.09 214.279 411.35 214.859C412.08 216.469 412.58 218.209 412.82 220.059C412.94 220.979 413 221.929 412.99 222.899C412.99 223.299 412.97 223.709 412.94 224.119Z" fill="#B8D0FC"/>
<path d="M411.36 214.859L394.23 224.149C394.23 224.149 401.3 211.699 404.2 206.949C405.87 207.899 407.36 209.119 408.62 210.569C409.32 211.379 409.95 212.249 410.49 213.179C410.81 213.729 411.1 214.289 411.36 214.859Z" fill="white"/>
<path d="M413.14 212.509L397.49 220.999C397.49 220.999 403.95 209.629 406.6 205.289C408.13 206.159 409.49 207.279 410.64 208.599C411.28 209.339 411.85 210.129 412.35 210.989C412.63 211.469 412.9 211.989 413.14 212.509Z" fill="#FF912B"/>
<path d="M444.67 316.999L362.33 316.989L370.67 269.479L453.01 269.489L444.67 316.999ZM362.99 316.509L444.17 316.519L452.34 269.969L371.16 269.959L362.99 316.509Z" fill="#B8D0FC"/>
<path d="M439.76 310.48L366.73 310.47C366.73 310.47 379.68 303.52 383.24 303.89C386.79 304.25 391.9 307.07 395.19 307.18C398.48 307.29 402.03 297.43 405.69 297.89C409.35 298.35 410.72 307.08 412.61 306.22C414.5 305.37 420.19 305 423.46 306.22C426.73 307.44 431.5 302.34 434.38 302.5C437.26 302.67 439.76 310.48 439.76 310.48Z" fill="#FF912B"/>
<path d="M384.29 296.519H370.34L370.47 295.779H384.42L384.29 296.519Z" fill="#FF912B"/>
<path d="M384.01 298.099H370.07L370.2 297.359H384.14L384.01 298.099Z" fill="#FF912B"/>
<path d="M370.91 286.659L443.94 286.669C443.94 286.669 433.42 279.719 429.74 280.089C426.06 280.449 419.96 283.269 416.64 283.369C413.32 283.479 413.22 273.619 409.4 274.079C405.58 274.539 401.15 283.269 399.55 282.409C397.96 281.559 392.4 281.189 388.7 282.409C385 283.629 382.02 278.529 379.08 278.689C376.16 278.849 370.91 286.659 370.91 286.659Z" fill="#B8D0FC"/>
<path d="M388.23 274.059H374.28L374.41 273.319H388.36L388.23 274.059Z" fill="#B8D0FC"/>
<path d="M387.96 275.639H374.01L374.14 274.899H388.09L387.96 275.639Z" fill="#B8D0FC"/>
<path d="M375.64 262.86H372.44L375.23 247.85H378.43L375.64 262.86Z" fill="#B8D0FC"/>
<path d="M380.01 262.859H376.81L378.96 251.229H382.16L380.01 262.859Z" fill="#B8D0FC"/>
<path d="M384.37 262.859H381.17L383.42 250.729H386.62L384.37 262.859Z" fill="#B8D0FC"/>
<path d="M388.74 262.86H385.53L387.24 253.63H390.45L388.74 262.86Z" fill="#B8D0FC"/>
<path d="M393.1 262.86H389.9L391.73 252.96H394.93L393.1 262.86Z" fill="#B8D0FC"/>
<path d="M397.46 262.86H394.26L395.68 255.18H398.89L397.46 262.86Z" fill="#B8D0FC"/>
<path d="M418.49 262.86H415.29L418.07 247.85H421.28L418.49 262.86Z" fill="#FF912B"/>
<path d="M422.86 262.859H419.65L421.81 251.229H425.01L422.86 262.859Z" fill="#FF912B"/>
<path d="M427.22 262.859H424.02L426.27 250.729H429.47L427.22 262.859Z" fill="#FF912B"/>
<path d="M431.58 262.86H428.38L430.09 253.63H433.29L431.58 262.86Z" fill="#FF912B"/>
<path d="M435.95 262.86H432.74L434.58 252.96H437.78L435.95 262.86Z" fill="#FF912B"/>
<path d="M440.31 262.86H437.11L438.53 255.18H441.73L440.31 262.86Z" fill="#FF912B"/>
<path d="M433.92 213.86H423.49L423.76 212.43H434.18L433.92 213.86Z" fill="#B8D0FC"/>
<path d="M446.71 213.86H435.19L435.46 212.43H446.98L446.71 213.86Z" fill="#B8D0FC"/>
<path d="M454.91 213.86H447.57L447.84 212.43H455.18L454.91 213.86Z" fill="#B8D0FC"/>
<path d="M461.77 213.86H456.1L456.37 212.43H462.03L461.77 213.86Z" fill="#B8D0FC"/>
<path d="M432.77 219.95H422.34L422.61 218.52H433.04L432.77 219.95Z" fill="#B8D0FC"/>
<path d="M445.56 219.95H434.05L434.32 218.52H445.83L445.56 219.95Z" fill="#B8D0FC"/>
<path d="M453.77 219.95H446.43L446.7 218.52H454.04L453.77 219.95Z" fill="#B8D0FC"/>
<path d="M460.62 219.95H454.96L455.23 218.52H460.89L460.62 219.95Z" fill="#B8D0FC"/>
<path d="M440.11 210.53H424.12L424.38 209.1H440.38L440.11 210.53Z" fill="#B8D0FC"/>
<path d="M450.86 210.53H441.64L441.9 209.1H451.13L450.86 210.53Z" fill="#B8D0FC"/>
<path d="M462.4 210.53H452.16L452.43 209.1H462.67L462.4 210.53Z" fill="#B8D0FC"/>
<path d="M438.9 217.01H422.9L423.17 215.58H439.16L438.9 217.01Z" fill="#B8D0FC"/>
<path d="M449.64 217.01H440.42L440.69 215.58H449.91L449.64 217.01Z" fill="#B8D0FC"/>
<path d="M461.18 217.01H450.94L451.21 215.58H461.45L461.18 217.01Z" fill="#B8D0FC"/>
<path d="M431.63 226.049H421.2L421.47 224.619H431.9L431.63 226.049Z" fill="#B8D0FC"/>
<path d="M444.42 226.049H432.91L433.17 224.619H444.69L444.42 226.049Z" fill="#B8D0FC"/>
<path d="M452.62 226.049H445.28L445.55 224.619H452.89L452.62 226.049Z" fill="#B8D0FC"/>
<path d="M459.48 226.049H453.81L454.08 224.619H459.75L459.48 226.049Z" fill="#B8D0FC"/>
<path d="M437.75 223.1H421.75L422.02 221.67H438.02L437.75 223.1Z" fill="#B8D0FC"/>
<path d="M448.5 223.1H439.28L439.54 221.67H448.76L448.5 223.1Z" fill="#B8D0FC"/>
<path d="M460.04 223.1H449.8L450.07 221.67H460.31L460.04 223.1Z" fill="#B8D0FC"/>
<path d="M430.55 231.76H420.13L420.4 230.33H430.82L430.55 231.76Z" fill="#B8D0FC"/>
<path d="M443.35 231.76H431.83L432.1 230.33H443.61L443.35 231.76Z" fill="#B8D0FC"/>
<path d="M451.55 231.76H444.21L444.48 230.33H451.82L451.55 231.76Z" fill="#B8D0FC"/>
<path d="M458.4 231.76H452.74L453.01 230.33H458.67L458.4 231.76Z" fill="#B8D0FC"/>
<path d="M436.68 228.81H420.68L420.95 227.38H436.95L436.68 228.81Z" fill="#B8D0FC"/>
<path d="M447.42 228.81H438.2L438.47 227.38H447.69L447.42 228.81Z" fill="#B8D0FC"/>
<path d="M458.97 228.81H448.72L448.99 227.38H459.23L458.97 228.81Z" fill="#B8D0FC"/>
<path d="M406.83 250.08H401.72L401.85 249.38H406.96L406.83 250.08Z" fill="#B8D0FC"/>
<path d="M413.09 250.08H407.45L407.58 249.38H413.22L413.09 250.08Z" fill="#B8D0FC"/>
<path d="M406.27 253.06H401.16L401.29 252.36H406.4L406.27 253.06Z" fill="#B8D0FC"/>
<path d="M412.53 253.06H406.89L407.02 252.36H412.66L412.53 253.06Z" fill="#B8D0FC"/>
<path d="M409.86 248.45H402.03L402.16 247.75H409.99L409.86 248.45Z" fill="#B8D0FC"/>
<path d="M415.12 248.45H410.6L410.74 247.75H415.25L415.12 248.45Z" fill="#B8D0FC"/>
<path d="M409.26 251.62H401.43L401.56 250.92H409.39L409.26 251.62Z" fill="#B8D0FC"/>
<path d="M414.52 251.62H410.01L410.14 250.92H414.65L414.52 251.62Z" fill="#B8D0FC"/>
<path d="M447.71 250.08H442.6L442.74 249.38H447.84L447.71 250.08Z" fill="#B8D0FC"/>
<path d="M453.97 250.08H448.33L448.47 249.38H454.1L453.97 250.08Z" fill="#B8D0FC"/>
<path d="M447.15 253.06H442.05L442.18 252.36H447.28L447.15 253.06Z" fill="#B8D0FC"/>
<path d="M453.41 253.06H447.77L447.91 252.36H453.54L453.41 253.06Z" fill="#B8D0FC"/>
<path d="M450.74 248.45H442.91L443.04 247.75H450.87L450.74 248.45Z" fill="#B8D0FC"/>
<path d="M456 248.45H451.49L451.62 247.75H456.13L456 248.45Z" fill="#B8D0FC"/>
<path d="M450.15 251.62H442.32L442.45 250.92H450.28L450.15 251.62Z" fill="#B8D0FC"/>
<path d="M455.41 251.62H450.89L451.02 250.92H455.54L455.41 251.62Z" fill="#B8D0FC"/>
<path d="M474.86 376.721C474.68 379.161 471.23 379.191 467.32 378.741C463.41 378.291 464.45 379.281 458.97 379.351C453.49 379.431 451.61 377.621 451.34 376.831C451.1 376.141 453.74 375.551 456.56 374.861C456.92 374.771 457.27 374.691 457.63 374.601C460.81 373.791 462.92 371.411 465.64 369.331C468.22 367.361 471.54 360.231 471.54 360.231L479.02 359.891C479.02 359.891 475.87 366.281 474.69 369.031C473.99 370.651 474.29 372.641 474.59 374.171C474.76 375.011 474.93 375.861 474.86 376.721Z" fill="#FFAE73"/>
<path d="M467.33 378.73C463.42 378.28 464.46 379.27 458.98 379.34C453.5 379.42 451.62 377.61 451.35 376.82C451.11 376.13 453.75 375.54 456.57 374.85L456.6 374.9C456.6 374.9 460.13 376.79 464.63 376.34C468.3 375.97 472.06 374.44 474.59 374.16C474.75 374.99 474.91 375.84 474.85 376.7C474.68 379.16 471.24 379.19 467.33 378.73Z" fill="#1E3865"/>
<path d="M526.52 377.22C526.34 379.66 522.9 379.69 518.99 379.24C515.08 378.79 516.12 379.78 510.64 379.86C505.16 379.94 503.28 378.13 503.01 377.35C502.77 376.66 505.41 376.07 508.23 375.38C508.58 375.29 508.94 375.2 509.3 375.11C512.48 374.3 514.58 371.92 517.3 369.83C519.88 367.86 517.3 356.18 517.3 356.18L525.53 355.38C525.53 355.38 525.14 365.21 525.14 369.68C525.14 371.44 525.95 373.14 526.26 374.67C526.42 375.52 526.58 376.36 526.52 377.22Z" fill="#FFAE73"/>
<path d="M518.99 379.25C515.08 378.8 516.12 379.79 510.64 379.87C505.16 379.95 503.28 378.14 503.01 377.36C502.77 376.67 505.41 376.08 508.23 375.39L508.26 375.44C508.26 375.44 511.79 377.33 516.3 376.87C519.97 376.5 523.72 374.96 526.26 374.68C526.42 375.51 526.58 376.36 526.52 377.22C526.34 379.67 522.9 379.7 518.99 379.25Z" fill="#1E3865"/>
<path d="M502.51 175.46C501.09 169.64 503.15 166.92 505 165.48C505.88 163.34 506.88 161.79 507.91 161.21C509.78 160.15 512.02 160.03 513.59 160.12C513.19 159.7 512.39 159.55 512.39 159.55C513.36 159.41 515.53 160.37 515.53 160.37C529.05 155.16 531.17 175.07 530.89 179.69C530.61 184.31 530.65 189.76 537.68 193.4C551.1 200.35 533.22 226.55 533.22 226.55C533.56 222.81 516.32 203.09 507.32 197.19C505.13 193.97 504.35 188.27 504.29 187.82C504.67 192.34 505.44 194.87 506.13 196.29C502.03 192.53 501.43 183.46 502.51 175.46Z" fill="#B53C37"/>
<path d="M507.85 197.49C507.8 197.51 512.19 199.79 515.49 198.89C518.59 198.04 520.62 194.02 520.58 194.01C519.26 193.75 518.89 191.94 518.91 184.18L518.32 184.3L508.33 186.28C508.33 186.28 508.56 189.43 508.56 192.39C508.57 194.86 508.42 197.22 507.85 197.49Z" fill="#FFAE73"/>
<path d="M508.33 186.26C508.33 186.26 508.56 189.41 508.56 192.37C514.15 192.21 517.11 187.11 518.32 184.28L508.33 186.26Z" fill="#F9924F"/>
<path d="M467.66 364.19C467.17 365.73 468.27 367.31 469.88 367.38L473.78 367.56L477.91 367.69C478.94 367.72 479.93 367.27 480.58 366.47C483.88 362.42 494.03 348.94 500.19 329.35C500.36 328.8 500.55 328.24 500.74 327.68C504.81 315.82 513.24 300.94 517.68 287.47C518.39 285.32 519.02 283.3 519.59 281.39C519.77 280.78 519.95 280.18 520.12 279.58C523.39 268.2 524.34 260.74 525.22 252.76L493.14 253.02C493.15 253.03 486.4 305.52 467.66 364.19Z" fill="#214D9A"/>
<path d="M497.64 234.59C497.72 249.861 495.4 256.4 495.4 256.4C495.4 256.4 509.14 263.38 525.46 258.24C525.65 258.18 537.14 254.93 537.14 254.93C536.87 254.31 534.6 244.101 534.33 243.531C530.88 236.131 529.94 233.021 529.54 230.751C528.78 226.501 528.77 222.111 529.14 217.961C530.14 206.991 533.1 197.881 533.1 197.881C528.65 196.871 524.49 195.091 519.86 193.351C518.8 194.681 515.54 196.061 512.72 196.001C509.47 195.931 508.41 194.541 508.58 193.021C505.11 194.951 502.35 196.771 502.35 196.771C499.4 201.891 493.43 206.851 493 214.701C492.88 216.631 497.64 234.171 497.64 234.59Z" fill="white"/>
<path d="M525.23 236.29C526.63 238.27 529.32 250.34 536.01 251.85C532.56 243.25 529.95 239.48 529.54 236.84C528.78 231.91 528.77 226.8 529.14 221.98C526.9 218.06 525.23 215.36 525.23 215.36C525.05 214.73 521.67 204.27 520.59 213.62C519.5 222.98 523.66 234.07 525.23 236.29Z" fill="#4B9BA9"/>
<path d="M506.46 189.07C506.46 189.07 519.69 189.29 519.7 181.05C519.71 172.81 521.42 167.28 512.97 166.8C504.52 166.31 502.88 169.46 502.2 172.21C501.54 174.95 503.02 188.8 506.46 189.07Z" fill="#FFAE73"/>
<path d="M506.95 166.59C506.95 166.59 510.57 176.26 516.13 177.69C521.69 179.12 524.1 177.63 524.1 177.63C524.1 177.63 519.83 174.24 518.95 168.33C518.96 168.33 509.69 161.99 506.95 166.59Z" fill="#B53C37"/>
<path d="M507.85 167.37C507.85 167.37 505.14 169.531 504.48 171.631C503.82 173.731 503.52 178.05 502.26 177.9C502.26 177.9 499.53 171.33 502.6 167.61C505.86 163.67 507.85 167.37 507.85 167.37Z" fill="#B53C37"/>
<path d="M485.64 245.19L479.39 264.24L482.96 265.67L493.29 248.84L485.64 245.19Z" fill="#FFAE73"/>
<path d="M502.49 195.65C502.49 195.65 495.12 198.57 492.99 203.13C490.86 207.69 487.63 238.27 486.34 241.41C485.05 244.55 484.09 247.04 484.09 247.04C484.09 247.04 487.81 250.17 491.54 250.4C495.28 250.63 502.49 195.65 502.49 195.65Z" fill="#FF912B"/>
<path d="M508.57 193.021C508.57 193.021 500.91 211.93 500.69 215.76C500.46 219.59 499.79 278.36 499.79 278.36C499.79 278.36 500.24 281.061 495.06 279.941C489.88 278.811 488.53 277.691 488.53 277.691C488.53 277.691 493.48 241.441 492.13 228.831C490.78 216.221 502.49 195.661 502.49 195.661L508.57 193.021Z" fill="#FF912B"/>
<path d="M473.79 367.57L478.28 367.71C479.08 367.73 479.85 367.39 480.36 366.77C483.38 363.12 493.89 349.45 500.21 329.36C500.38 328.81 500.57 328.25 500.76 327.69C504.83 315.83 513.26 300.95 517.7 287.48C518.41 285.33 519.04 283.31 519.61 281.4C519.79 280.79 519.97 280.19 520.14 279.59L515.42 276.01C515.42 276.01 501.24 298.98 496.85 320.59C493.02 339.36 477.74 361.95 473.79 367.57Z" fill="#153D74"/>
<path d="M514.92 322.6C514.84 332.54 515.31 354.71 516.52 365.54C516.63 366.53 517.47 367.28 518.47 367.28H521.82C523.23 367.28 524.29 367.27 524.99 367.26C525.6 367.25 526.11 366.82 526.23 366.22C529.56 349.28 531.94 335.21 533.68 323.05C535.14 312.87 536.44 304.15 537.43 296.64C538.43 289.08 539.13 282.75 539.38 277.4C539.42 276.56 539.45 275.74 539.46 274.94C539.48 274.14 539.48 273.36 539.47 272.61L511.75 269.91C512.11 288.33 514.96 316.49 514.92 322.6Z" fill="#214D9A"/>
<path d="M521.81 367.28C523.08 367.28 524.06 367.27 524.75 367.26C525.49 367.25 526.12 366.72 526.26 366C529.57 349.16 531.94 335.16 533.67 323.05C535.13 312.87 536.43 304.15 537.42 296.64C538.42 289.08 539.12 282.75 539.37 277.4L529.2 283.38C529.2 283.38 535.69 285.67 533.21 303.01C530.73 320.35 525.26 364.83 521.81 367.28Z" fill="#153D74"/>
<path d="M520.51 277.23C520.51 277.23 522.46 284.28 529.22 283.38C535.97 282.48 545.58 278.43 545.58 278.43C545.58 278.43 542.69 269.31 539.1 257.33C534.75 242.82 529.38 224.12 526.84 212.32C526.13 209.01 525.64 206.25 525.46 204.28L519.86 193.41C519.86 193.41 511.5 212.16 511.05 216.89C510.6 221.62 520.51 277.23 520.51 277.23Z" fill="#FF912B"/>
<path d="M527.25 216.18L519.85 193.4C519.87 193.41 529.19 196.17 533.88 198.54C533.88 198.54 536.81 202.32 538.62 211.04C538.62 211.04 540.54 231.97 536.26 239.62C536.26 239.62 522.75 242.32 501.13 234.89V229.94C501.13 229.94 524.77 231.18 529.61 231.74L527.25 216.18Z" fill="#FFAE73"/>
<path d="M520.8 226.791C521.1 234.451 522.9 249.311 538.96 257.261C539 257.281 539.05 257.301 539.09 257.321C534.74 242.811 529.37 224.111 526.83 212.311C523.89 216.731 520.64 222.581 520.8 226.791Z" fill="#FC7600"/>
<path d="M519.85 193.41C519.85 193.41 533.56 194.38 536.86 201.73C540.16 209.09 541.21 233.55 537.01 240.76C537.01 240.76 531.22 242.41 520.99 240.49C520.86 240.47 520.74 240.44 520.61 240.42C520.61 240.42 517.34 232.43 520.27 230.85C520.27 230.85 528.9 231.3 528 228.45C527.11 225.59 519.85 193.41 519.85 193.41Z" fill="#FF912B"/>
<path d="M485.48 233.01L485.88 234.31L508.38 227.31C508.38 227.31 508.68 226.97 508.53 226.51C508.37 226.01 507.97 226.01 507.97 226.01L485.48 233.01Z" fill="#B53C37"/>
<path d="M483.85 234.23L485.48 233.01L485.88 234.31L483.85 234.23Z" fill="#B53C37"/>
<path d="M480.28 263.72C480.28 263.72 474.57 266.87 473.82 269.28C473.07 271.68 473.58 276.71 474.49 276.64C475.4 276.56 476.75 271.23 477.5 270.86C478.25 270.48 479.3 269.36 479.3 270.18C479.3 271.01 478.55 272.51 478.92 272.73C479.3 272.96 480.5 270.63 481.32 270.18C482.15 269.73 482.49 266.02 483.3 265.02C484.11 264.02 480.28 263.72 480.28 263.72Z" fill="#FFAE73"/>
<path d="M501.14 229.95C501.14 229.95 496.04 226.81 493.89 227.29C491.75 227.77 486.29 231.73 488.92 232.58C491.54 233.44 493.67 232.54 494.68 233.16C495.69 233.78 496.43 234.92 501.14 234.9C505.85 234.89 501.14 229.95 501.14 229.95Z" fill="#FFAE73"/>
<g opacity="0.6">
<path d="M253.95 378.639H253.87C253.37 378.639 252.97 378.229 252.99 377.739L254.33 319.649L258.28 319.189L254.91 377.739C254.87 378.239 254.45 378.639 253.95 378.639Z" fill="#6CA3EA"/>
<path d="M230.94 378.639H230.86C230.36 378.639 229.96 378.229 229.98 377.739L231.32 319.649L235.27 319.189L231.9 377.739C231.87 378.239 231.45 378.639 230.94 378.639Z" fill="#6CA3EA"/>
<path d="M294.42 378.639H294.5C295 378.639 295.4 378.229 295.38 377.739L294.04 319.649L290.09 319.189L293.46 377.739C293.5 378.239 293.91 378.639 294.42 378.639Z" fill="#6CA3EA"/>
<path d="M228.33 316.049V276.249C228.33 269.249 234.01 263.569 241.01 263.569H269.69C276.69 263.569 282.37 269.249 282.37 276.249V317.569L228.33 316.049Z" fill="#6CA3EA"/>
<path d="M287.5 322.329H234.61C231.14 322.329 228.33 319.519 228.33 316.049H287.51V322.329H287.5Z" fill="#6CA3EA"/>
<path d="M293.81 322.329H252.57C250.83 322.329 249.43 320.919 249.43 319.189C249.43 317.449 250.84 316.049 252.57 316.049H293.81C295.55 316.049 296.95 317.459 296.95 319.189C296.95 320.919 295.55 322.329 293.81 322.329Z" fill="#6CA3EA"/>
</g>
<path d="M325.48 355.48C325.88 357.48 328.73 357.15 331.92 356.37C335.11 355.59 334.35 356.52 338.88 356.01C343.41 355.51 344.79 353.82 344.93 353.14C345.05 352.54 342.81 352.33 340.41 352.05C340.11 352.02 339.8 351.98 339.5 351.94C336.79 351.6 334.8 349.85 332.34 348.41C330.01 347.05 326.52 341.5 326.52 341.5L320.3 341.99C320.3 341.99 323.56 346.95 324.83 349.1C325.57 350.37 325.53 352.04 325.44 353.34C325.38 354.05 325.34 354.77 325.48 355.48Z" fill="#FFAE73"/>
<path d="M331.92 356.37C335.11 355.59 334.35 356.52 338.88 356.01C343.41 355.51 344.79 353.82 344.93 353.14C345.05 352.54 342.81 352.33 340.41 352.05L340.39 352.1C340.39 352.1 337.67 354.03 333.9 354.12C330.82 354.19 327.57 353.31 325.44 353.35C325.39 354.05 325.35 354.77 325.49 355.48C325.88 357.48 328.73 357.14 331.92 356.37Z" fill="#1E3865"/>
<path d="M272.04 364.43C270.8 366.05 272.94 367.97 275.63 369.85C278.32 371.72 277.13 371.77 280.5 374.84C283.88 377.91 286.05 377.82 286.65 377.48C287.18 377.18 285.86 375.36 284.47 373.37C284.3 373.12 284.12 372.87 283.95 372.62C282.41 370.36 282.41 367.71 281.86 364.91C281.34 362.26 285.67 352.51 285.67 352.51L278.71 351.63C278.71 351.63 277.8 357.52 277.02 359.89C276.56 361.29 274.63 362.2 273.6 362.99C273.04 363.41 272.47 363.85 272.04 364.43Z" fill="#FFAE73"/>
<path d="M275.63 369.839C278.32 371.709 277.13 371.759 280.5 374.829C283.88 377.899 286.05 377.809 286.65 377.469C287.18 377.169 285.86 375.349 284.47 373.359L284.42 373.369C284.42 373.369 281.18 372.609 278.61 369.839C276.52 367.579 275.02 364.559 273.59 362.989C273.03 363.419 272.46 363.859 272.03 364.429C270.8 366.049 272.94 367.969 275.63 369.839Z" fill="#1E3865"/>
<path d="M300.45 314.6L294.1 331.7L285.81 354.02C285.81 354.02 283.56 354.24 281.4 353.62C279.42 353.05 277.14 351.55 277.14 351.55C277.14 351.55 279.44 327.58 283.74 313.82C284.84 310.29 286.08 307.43 287.44 305.82C294.09 297.95 300.45 314.6 300.45 314.6Z" fill="#0B3563"/>
<path d="M293.99 287.449C289.83 286.109 277.28 286.909 265.36 289.239L263.53 286.039L237.77 284.029C237.77 284.029 229.27 302.879 233.92 314.889C234.6 316.659 235.96 317.789 238.28 317.819H238.66C238.66 317.819 253.99 317.809 258.97 317.809C271.78 317.809 286.08 308.999 287.93 308.629C290.96 308.019 292.17 314.079 295.2 320.439C298.23 326.799 323.66 348.599 323.66 348.599C323.66 348.599 327.57 348.639 329.18 348.029C330.92 347.379 331.55 346.529 331.55 346.529C331.55 346.529 303.38 290.479 293.99 287.449Z" fill="#214D9A"/>
<path d="M254.51 208.08C250.88 207.22 245.96 208.23 245.14 208.33C235.36 209.47 233.17 224.67 233.9 228.92C235.24 236.75 231.48 238.96 226.99 245.22C217.99 257.78 224.21 268.13 231.53 270.69C235.93 272.23 241.92 268.04 241.92 268.04C242.03 268.08 257.47 253.34 265.11 246.18C277.96 240.88 263.75 210.28 254.51 208.08Z" fill="#1E3865"/>
<path d="M256.6 243.91C256.65 243.93 252.62 246.56 249.33 246C246.24 245.48 242.97 241.45 243.01 241.44C244.26 241.06 245.36 239.6 244.58 232.09L245.17 232.15L255.04 233.1C255.04 233.1 255.12 236.17 255.41 239.04C255.65 241.43 256.03 243.7 256.6 243.91Z" fill="#FFAE73"/>
<path d="M255.05 233.089C255.05 233.089 255.13 236.159 255.42 239.029C249.99 239.419 246.63 234.769 245.18 232.149L255.05 233.089Z" fill="#F9924F"/>
<path d="M257.13 235.62C257.13 235.62 244.34 237.11 243.53 229.13C242.72 221.15 240.53 215.97 248.66 214.68C256.79 213.39 258.69 216.27 259.61 218.87C260.53 221.47 260.44 235.03 257.13 235.62Z" fill="#FFAE73"/>
<path d="M258.08 214.779C258.08 214.779 251.9 223.619 246.66 225.549C241.41 227.469 238.94 226.269 238.94 226.269C238.94 226.269 241.44 222.819 242.27 218.079C242.51 216.679 243.48 215.519 244.82 215.049C248.58 213.729 255.83 211.719 258.08 214.779Z" fill="#1E3865"/>
<path d="M252.98 215.429C252.98 215.429 256.28 217.319 257.6 218.999C258.87 220.629 260.23 224.949 260.04 226.849C260.04 226.849 262.12 217.769 258.79 214.469C255.25 210.969 252.98 215.429 252.98 215.429Z" fill="#1E3865"/>
<path d="M266.44 265.079C266.05 290.919 266.33 285.519 263.51 287.969C262.83 288.559 260.91 288.909 258.39 289.079C250.47 289.609 236.54 288.299 236.01 286.839C234.18 281.769 235.47 280.199 233.95 272.439C233.79 271.619 233.59 270.719 233.36 269.749C232.09 264.419 230.85 262.609 235.36 254.049C239.45 246.299 243.87 240.099 244.25 240.329C255.04 246.739 255.74 241.249 255.74 241.249C255.74 241.249 266.63 252.479 266.44 265.079Z" fill="white"/>
<path d="M294.09 331.699L285.61 354.949C285.61 354.949 282.56 355.939 280.34 355.619C278.08 355.289 276.84 354.059 276.84 354.059C276.84 354.059 279.43 327.579 283.73 313.819L294.09 331.699Z" fill="#214D9A"/>
<path d="M255.75 241.25C255.75 241.25 266.85 243.13 268.16 247.91C269.46 252.69 279 279.03 279 279.03C279 279.03 271.49 281.8 268.89 279.2C266.28 276.59 259.82 255.01 259.82 255.01L255.75 241.25Z" fill="white"/>
<path d="M258.39 289.079C250.47 289.609 236.54 288.299 236.01 286.839C234.18 281.769 235.47 280.199 233.95 272.439L237.67 263.979C237.67 263.979 237.14 273.659 240.68 276.809C244.21 279.959 255.15 282.889 256.87 285.529C257.69 286.789 258.23 288.059 258.39 289.079Z" fill="#DCEAFF"/>
<path d="M259.04 283.56C259.04 283.56 261.4 285.6 262.07 285.76C262.74 285.92 263.12 285.77 263.12 285.77L261.4 283.76L259.04 283.56Z" fill="#FFAE73"/>
<path d="M258.1 281.17L264.07 282.71C264.07 282.71 263.92 283.14 263.24 283.24C262.56 283.34 260.75 283.07 260.75 283.07L258.1 281.17Z" fill="#FFAE73"/>
<path d="M247.97 284.459C247.97 284.459 256.5 280.669 258.1 281.169C259.7 281.669 263.81 283.849 264.45 284.759C265.09 285.679 261.09 284.649 259.84 284.569C259.03 284.519 257.15 285.629 256.21 286.169C252.28 288.429 249.55 288.229 249.55 288.229L247.97 284.459Z" fill="#FFAE73"/>
<path d="M244.25 240.33C244.25 240.33 232.18 242.59 229.95 245.94C225.07 253.24 214.69 283.47 220.5 287.53C227.05 292.1 250.3 288.72 250.3 288.72C250.3 288.72 251.07 285.1 250 283.35C248.92 281.6 231.43 278.77 230.62 277.97C229.81 277.16 238.6 265.49 237.66 263.25C234.67 256.09 244.25 240.33 244.25 240.33Z" fill="white"/>
<path d="M291.95 283.17C291.95 283.17 300.39 285.45 301.26 286.76C302.13 288.07 303.83 292.08 303.76 293.12C303.69 294.17 301.38 291.05 300.52 290.25C299.96 289.73 297.94 289.43 296.94 289.27C294.43 288.86 293.22 287.71 292.28 287.14C291.65 286.76 290.88 286.83 290.88 286.83L291.95 283.17Z" fill="#FFAE73"/>
<path d="M300.53 289.06C300.53 289.06 301.04 291.93 301.43 292.45C301.82 292.97 302.19 293.08 302.19 293.08L302.13 290.6L300.53 289.06Z" fill="#FFAE73"/>
<path d="M301.27 286.76L304.7 291.41C304.7 291.41 304.34 291.63 303.78 291.3C303.23 290.98 302.07 289.7 302.07 289.7L301.27 286.76Z" fill="#FFAE73"/>
<path d="M292.28 287.15C292.28 287.15 293.06 289.05 294.63 289.73C296.19 290.41 297.34 291.43 297.59 291.07C297.84 290.7 296.41 288.77 296.41 288.77L292.28 287.15Z" fill="#FFAE73"/>
<path d="M276.75 272.81L294.51 284.04C294.51 284.04 292.64 286.54 292.02 286.76C288.73 287.97 273.94 286.81 268.88 279.2L276.75 272.81Z" fill="white"/>
<path d="M269.71 285.01C270.76 285.01 281.18 284.29 281.18 284.29C281.18 284.29 280.88 286.14 281.52 287.13L271.36 289.07L269.27 288.46L269.71 285.01Z" fill="#FDDBBA"/>
<path d="M252.33 286.69L269.72 285.01C269.72 285.01 269.11 288.23 271.38 289.07L252.21 290.47C252.2 290.47 250.66 288.3 252.33 286.69Z" fill="#FF912B"/>
<path d="M281.16 284.52L269.41 285.42C269.41 285.42 269.5 285.01 269.72 285.01C269.94 285 281.39 284.17 281.39 284.17L281.35 284.49L281.16 284.52Z" fill="#FF912B"/>
<path d="M271.37 289.07L281.72 287.1L281.62 286.84L270.59 288.95L271.37 289.07Z" fill="#FF912B"/>
<path d="M150.95 378.551H150.86C150.31 378.551 149.87 378.091 149.88 377.541L151.37 312.681L155.75 312.171L152.01 377.551C151.98 378.101 151.51 378.551 150.95 378.551Z" fill="#6CA3EA"/>
<path d="M125.41 378.551H125.32C124.77 378.551 124.33 378.091 124.34 377.541L125.83 312.681L130.21 312.171L126.47 377.551C126.44 378.101 125.97 378.551 125.41 378.551Z" fill="#6CA3EA"/>
<path d="M195.88 378.551H195.97C196.52 378.551 196.96 378.091 196.95 377.541L195.46 312.681L191.08 312.171L194.82 377.551C194.85 378.101 195.32 378.551 195.88 378.551Z" fill="#6CA3EA"/>
<path d="M122.51 308.661V264.221C122.51 256.401 128.81 250.061 136.59 250.061H168.42C176.19 250.061 182.5 256.401 182.5 264.221V310.361L122.51 308.661Z" fill="#6CA3EA"/>
<path d="M188.2 315.67H129.52C125.64 315.67 122.5 312.53 122.5 308.65H188.19V315.67H188.2Z" fill="#6CA3EA"/>
<path d="M195.18 315.67H149.44C147.5 315.67 145.93 314.1 145.93 312.16C145.93 310.22 147.5 308.65 149.44 308.65H195.18C197.12 308.65 198.69 310.22 198.69 312.16C198.69 314.1 197.12 315.67 195.18 315.67Z" fill="#6CA3EA"/>
<path d="M170.56 233.641C170.56 233.641 167.9 235.911 167.32 241.791C166.88 246.251 169.98 280.911 172.31 283.661C178.87 291.411 187.08 288.131 190.3 289.311L193.34 286.581C193.34 286.581 182.66 278.701 181.85 276.131C178.72 266.231 180.66 237.371 170.56 233.641Z" fill="#FDDBBA"/>
<path d="M168.65 205.37C168.65 205.37 168.83 199.01 160.45 197.77C152.07 196.52 149.75 198.48 148.33 200.62C146.9 202.76 144.23 211.49 144.5 214.96C144.77 218.43 154.33 222.73 154.17 224.76C154.01 226.78 168.65 205.37 168.65 205.37Z" fill="#0B3563"/>
<path d="M207.52 373.06C207.25 375.21 210.18 375.84 213.58 376.14C216.99 376.44 215.93 377.11 220.58 378.15C225.23 379.18 227.15 377.95 227.51 377.32C227.83 376.76 225.69 375.79 223.41 374.69C223.12 374.55 222.84 374.41 222.55 374.27C219.98 373.01 218.6 370.57 216.65 368.29C214.8 366.13 213.21 359.37 213.21 359.37L206.9 357.75C206.9 357.75 208.47 363.84 209 366.44C209.31 367.97 208.71 369.64 208.19 370.91C207.9 371.6 207.62 372.31 207.52 373.06Z" fill="#FFAE73"/>
<path d="M213.59 376.14C217 376.44 215.94 377.11 220.59 378.15C225.24 379.18 227.16 377.95 227.52 377.32C227.84 376.76 225.7 375.79 223.42 374.69L223.38 374.73C223.38 374.73 220.05 375.75 216.29 374.56C213.23 373.59 210.3 371.6 208.19 370.91C207.91 371.6 207.62 372.31 207.53 373.07C207.25 375.21 210.18 375.84 213.59 376.14Z" fill="#1E3865"/>
<path d="M160.29 285.5C160.29 285.5 202.46 289.87 209.41 296.33C216.36 302.79 215.12 362.93 215.12 362.93C214.04 364.05 213.24 364.03 211.53 363.89C209.89 363.76 206.54 362.35 206.54 362.35C206.54 362.35 197.51 332.82 197.4 325.98C197.29 319.14 195.86 307.54 192.99 306.85C190.12 306.17 155.98 309.99 152.24 299.21C148.5 288.43 154.71 279.55 154.71 279.55L160.29 285.5Z" fill="#FC7600"/>
<path d="M140.6 296.35C142.42 297.57 145.67 299.45 151.13 299.64C160.9 300 173.09 298.83 175.49 296.56C176.11 295.97 176.42 295 176.5 293.78C176.76 290.03 174.97 283.86 173.77 278.76C172.99 275.44 172.46 272.58 172.89 271.12C174.22 266.66 178.33 257.58 178.69 254.6C179.05 251.62 175.48 235.62 170.56 233.64C165.63 231.66 146.63 233.64 146.63 233.64C139.2 235.15 138.89 250.98 141.36 264.45C141.42 264.8 141.49 265.14 141.56 265.48C144.22 279.17 135.52 292.95 140.6 296.35Z" fill="#FDDBBA"/>
<path d="M165.15 236.55C165.02 237.42 162.64 238.83 157.56 237.49C152.69 236.21 152.11 234.62 152.11 233.57C152.11 232.33 154.23 230.66 154.2 223.04L154.78 223.15L164.6 225.09C164.6 225.09 164.38 228.18 164.37 231.09C164.36 233.54 165.37 235.1 165.15 236.55Z" fill="#FFAE73"/>
<path d="M164.6 225.1C164.6 225.1 164.38 228.19 164.37 231.1C158.88 230.95 155.97 225.93 154.78 223.16L164.6 225.1Z" fill="#F9924F"/>
<path d="M166.43 227.85C166.43 227.85 153.43 228.06 153.43 219.97C153.42 211.88 151.74 206.45 160.03 205.97C168.33 205.49 169.94 208.58 170.6 211.28C171.26 213.98 169.81 227.59 166.43 227.85Z" fill="#FFAE73"/>
<path d="M165.95 205.77C165.95 205.77 162.39 215.27 156.93 216.67C151.47 218.07 149.1 216.61 149.1 216.61C149.1 216.61 153.29 213.28 154.16 207.47C154.16 207.48 163.27 201.25 165.95 205.77Z" fill="#0B3563"/>
<path d="M165.07 206.539C165.07 206.539 167.73 208.659 168.38 210.719C169.03 212.779 169.32 217.019 170.56 216.879C170.56 216.879 173.24 210.429 170.23 206.769C167.02 202.909 165.07 206.539 165.07 206.539Z" fill="#0B3563"/>
<path d="M175.85 374.831C175.82 377.001 178.8 377.291 182.22 377.191C185.64 377.091 184.66 377.891 189.4 378.381C194.13 378.871 195.9 377.421 196.19 376.761C196.45 376.171 194.21 375.451 191.82 374.621C191.52 374.521 191.22 374.411 190.92 374.301C188.23 373.341 186.59 371.081 184.39 369.041C182.31 367.111 186.9 357.751 186.9 357.751L180.88 354.771C180.88 354.771 179.74 361.451 178.27 367.301C177.89 368.811 176.65 371.301 176.27 372.621C176.07 373.331 175.86 374.061 175.85 374.831Z" fill="#FFAE73"/>
<path d="M140.86 294.74C142.68 295.96 145.67 299.44 151.13 299.64C160.14 297.59 170.4 295.2 176.5 293.78C176.76 290.03 174.97 283.86 173.77 278.76C166.65 280.93 156.06 273.53 152.51 270.6C148.77 267.53 148.89 257.29 148.89 257.29L141.36 264.45C141.42 264.8 141.49 265.14 141.56 265.48C144.22 279.17 135.78 291.34 140.86 294.74Z" fill="#F8CAA4"/>
<path d="M182.22 377.19C185.64 377.09 184.66 377.89 189.4 378.38C194.13 378.87 195.9 377.42 196.19 376.76C196.45 376.17 194.21 375.45 191.82 374.62L191.79 374.66C191.79 374.66 188.59 376.05 184.73 375.3C181.58 374.69 178.45 373.05 176.28 372.61C176.08 373.33 175.87 374.06 175.86 374.83C175.82 376.99 178.8 377.28 182.22 377.19Z" fill="#1E3865"/>
<path d="M151.19 288.071C161.9 287.771 193.88 290.321 200.02 294.951C207.58 300.651 185.98 362.311 185.98 362.311C185.98 362.311 183.47 362.551 182.68 362.461C179.25 362.071 177.85 361.031 177.85 361.031C177.85 361.031 177.93 324.741 180.46 317.801C182.79 311.391 184.22 309.121 181.3 308.731C178.38 308.351 141.91 313.001 138.87 301.991C136.49 293.391 140.01 285.431 140.01 285.431C140.01 285.431 141.32 288.361 151.19 288.071Z" fill="#FF912B"/>
<path d="M146.63 233.64C146.63 233.64 139.19 234.27 138.61 240.15C138.17 244.61 134.94 276.27 137.27 279.03C143.83 286.78 165.69 288.42 168.9 289.6L169.79 285.94C169.79 285.94 146.45 274.18 146.81 271.51C147.16 268.83 153.76 232.58 146.63 233.64Z" fill="#FDDBBA"/>
<path d="M152.37 200.97C152.37 200.97 152.9 197.58 148.2 196.7C143.5 195.82 143.41 205.81 142.91 208.22C142.41 210.63 143.66 212.07 145.46 212.22C147.25 212.37 152.37 200.97 152.37 200.97Z" fill="#0B3563"/>
<path d="M170.04 285.77C170.04 285.77 176.69 283.89 178.27 284.33C179.85 284.77 185.28 288.36 184.51 289.34C183.75 290.32 178.97 288.76 176.77 289.05C174.57 289.35 172.87 290.43 171.29 290.2C169.71 289.97 168.05 289.34 168.05 289.34L170.04 285.77Z" fill="#FFAE73"/>
<path d="M170.04 285.77C170.04 285.77 173.29 284.1 174.22 283.15C174.34 283.03 174.53 283.06 174.62 283.2C174.87 283.59 175.1 284.35 173.96 285.1C172.32 286.17 170.04 285.77 170.04 285.77Z" fill="#FFAE73"/>
<path d="M193.33 286.57C193.33 286.57 200.23 286.95 201.58 287.88C202.93 288.81 206.9 293.97 205.86 294.64C204.82 295.32 200.81 292.29 198.63 291.86C196.45 291.43 194.49 291.9 193.07 291.16C191.65 290.42 190.29 289.3 190.29 289.3L193.33 286.57Z" fill="#FFAE73"/>
<path d="M145.95 379.11H117.89C116.54 377.46 117.04 371.39 117.24 369.4C117.28 369 117.31 368.77 117.31 368.77C117.31 368.77 126.89 361.11 128.21 366.97C128.25 367.15 128.3 367.33 128.35 367.51C130.01 373 137.45 375.49 141.74 376.19C144.54 376.65 145.57 378.1 145.95 379.11Z" fill="#163054"/>
<path d="M69.3902 287.931C70.4002 287.931 117.46 296.761 125.24 306.401C129.13 311.211 129.71 366.801 129.71 366.801C129.71 366.801 124.9 372.761 114.51 369.301C114.51 369.301 106.89 331.271 107.46 319.731C107.62 316.541 75.3102 319.271 69.4002 317.741C63.4902 316.211 49.0402 303.351 52.2202 297.081C55.3902 290.821 69.3902 287.931 69.3902 287.931Z" fill="#1E3865"/>
<path d="M103.46 285.32C103.46 285.32 106.47 287.92 109.56 288.65C111.32 289.07 113.03 289.55 114.04 290.01C116.83 291.29 122.13 297.02 121.64 297.59C120.06 299.41 113.69 294.66 112.48 295C111.26 295.34 114.48 298.1 113.2 298.85C112.53 299.24 111.28 296.86 110.1 296.52C108.51 296.07 107.46 293.67 106.98 293.5C106.05 293.18 102.19 289.71 102.19 289.71L103.46 285.32Z" fill="#FFAE73"/>
<path d="M158.36 379.11H130.3C128.95 377.46 129.45 371.39 129.65 369.4C129.69 369 129.72 368.77 129.72 368.77C129.72 368.77 139.3 361.11 140.62 366.97C140.66 367.15 140.71 367.33 140.76 367.51C142.42 373 149.86 375.49 154.15 376.19C156.94 376.65 157.97 378.1 158.36 379.11Z" fill="#153C6B"/>
<path d="M83.25 287.931C84.26 287.931 131.32 296.761 139.1 306.401C142.99 311.211 143.57 366.801 143.57 366.801C143.57 366.801 138.76 372.761 128.37 369.301C128.37 369.301 120.75 331.271 121.32 319.731C121.48 316.541 89.17 319.271 83.26 317.741C77.35 316.211 62.9 303.351 66.08 297.081C69.26 290.821 83.25 287.931 83.25 287.931Z" fill="#25468F"/>
<path d="M80.3101 230.75C76.9301 230.47 73.3801 229.57 70.3101 228.57C66.4801 227.33 63.3801 225.51 65.3801 222C67.2201 218.77 70.1901 211.55 69.9901 205.58L77.1301 211.33L81.9801 215.24C81.9801 215.24 81.9601 217.54 81.4301 221.58C81.3301 222.32 81.2201 223.11 81.0901 223.96C80.9801 224.65 81.3001 225.33 81.8901 225.7C81.9301 225.72 81.9601 225.75 82.0001 225.77C84.3801 227.27 83.1401 230.99 80.3101 230.75Z" fill="#FFAE73"/>
<path d="M81.9602 214.29C81.9602 214.29 82.2102 215.13 81.7802 218.21C77.4602 217.51 73.4202 214.06 73.4202 214.06C75.6202 213.46 76.4202 211.08 78.0602 211.3L81.9602 214.29Z" fill="#F9924F"/>
<path d="M85.9602 214.99C85.9602 214.99 69.3402 217.75 67.7802 207.37C66.2202 196.99 63.0202 190.36 73.5702 188.16C84.1202 185.96 86.7802 189.61 88.1402 192.94C89.5002 196.29 90.2402 214.01 85.9602 214.99Z" fill="#FFAE73"/>
<path d="M90.5801 188.36C91.2901 190.86 89.3801 193.9 86.1801 194.9C81.4201 196.39 82.4701 202.23 80.3301 202.15C78.1901 202.07 77.3201 198.79 75.4101 201.41C73.7801 203.64 76.7701 206.29 76.5601 207.51C76.2101 209.61 72.9101 213.91 69.9501 213.7C66.9801 213.48 61.4301 199.38 62.5401 195.02C63.6501 190.66 68.0901 186.06 72.3001 185.42C76.5001 184.79 82.3401 186.6 83.6901 186.6C85.0401 186.6 90.2001 187.01 90.5801 188.36Z" fill="#25468F"/>
<path d="M94.7001 284.821C94.4201 287.221 93.9201 288.841 93.1301 289.371C90.6501 291.031 87.3701 293.091 83.7001 295.141C70.7001 302.391 52.9001 309.391 49.2801 297.131C45.0301 282.741 47.8201 255.721 51.9901 238.941C54.3901 229.271 61.0301 219.131 65.5201 219.141C73.1701 219.151 84.1701 221.171 88.6101 232.131C90.3301 236.371 92.8601 251.081 94.1401 264.551C94.9101 272.561 95.2401 280.151 94.7001 284.821Z" fill="white"/>
<path d="M64.75 219.23L66.48 215.33C66.48 215.33 81.84 216.89 84.44 225.72C84.44 225.71 72.57 219.42 64.75 219.23Z" fill="#DCEAFF"/>
<path d="M94.7001 284.821C94.4201 287.221 93.9201 288.841 93.1301 289.371C90.6501 291.031 87.3701 293.091 83.7001 295.141C79.8701 292.811 72.0201 287.261 70.1801 280.721C67.7801 272.171 69.4601 261.641 69.4601 261.641L94.7001 284.821Z" fill="#DCEAFF"/>
<path d="M67.8601 232.391C67.8601 232.391 69.1901 269.151 71.2801 276.411C74.8401 288.801 107.35 293.221 107.35 293.221C107.35 293.221 109.27 291.051 108.41 287.441C108.41 287.441 88.9801 272.121 88.4101 269.211C87.8401 266.291 92.6401 246.531 87.1601 239.351C81.6701 232.161 71.5501 225.931 67.8601 232.391Z" fill="white"/>
<path d="M27.1099 378.76H26.9999C26.1199 378.74 25.4499 378.03 25.5299 377.21L31.3699 318.89L36.4699 319.34L28.0799 377.98C28.0199 378.43 27.5999 378.77 27.1099 378.76Z" fill="#6CA3EA"/>
<path d="M57.17 378.76H57.06C56.18 378.74 55.51 378.03 55.59 377.21L61.43 318.89L66.53 319.34L58.14 377.98C58.08 378.43 57.66 378.77 57.17 378.76Z" fill="#6CA3EA"/>
<path d="M113.6 378.76H113.71C114.59 378.74 115.26 378.03 115.18 377.21L109.34 318.89L104.24 319.34L112.63 377.98C112.69 378.43 113.11 378.77 113.6 378.76Z" fill="#6CA3EA"/>
<path d="M28.76 310.62L23.22 261.91C22.49 254.89 24.84 248.02 34.97 247.48L52.79 246.39C63.35 245.95 68.12 254.75 69.46 261.51L80.04 315.06L28.76 310.62Z" fill="#6CA3EA"/>
<path d="M33.5201 319.739H109.06C111.63 319.739 113.73 317.639 113.73 315.069C113.73 312.499 111.63 310.399 109.06 310.399H28.8501V315.069C28.8501 317.629 30.9501 319.739 33.5201 319.739Z" fill="#6CA3EA"/>
<path d="M33.5201 319.739H75.3701C77.9401 319.739 80.0401 317.639 80.0401 315.069C80.0401 312.499 77.9401 310.399 75.3701 310.399H28.8501V315.069C28.8501 317.629 30.9501 319.739 33.5201 319.739Z" fill="#6CA3EA"/>
<path d="M708.55 381.27H5.36992C4.56992 381.27 3.91992 380.62 3.91992 379.82C3.91992 379.02 4.56992 378.37 5.36992 378.37H708.55C709.35 378.37 710 379.02 710 379.82C710 380.62 709.35 381.27 708.55 381.27Z" fill="#2D3554"/>
<path d="M146.92 162.65H133.9C128.69 162.65 124.43 158.39 124.43 153.18V141.11C124.43 135.9 128.69 131.64 133.9 131.64H146.92C152.13 131.64 156.39 135.9 156.39 141.11V153.17C156.38 158.39 152.12 162.65 146.92 162.65Z" fill="#6CA3EA"/>
<path d="M146.35 161.309H134.46C129.7 161.309 125.81 157.419 125.81 152.659V141.639C125.81 136.879 129.7 132.989 134.46 132.989H146.35C151.11 132.989 155 136.879 155 141.639V152.659C155 157.409 151.11 161.309 146.35 161.309Z" fill="#DCEAFF"/>
<path d="M140.41 136.479C140.775 136.479 141.07 136.184 141.07 135.819C141.07 135.455 140.775 135.159 140.41 135.159C140.045 135.159 139.75 135.455 139.75 135.819C139.75 136.184 140.045 136.479 140.41 136.479Z" fill="#6CA3EA"/>
<path d="M145.09 136.759C145.27 136.439 145.67 136.329 145.99 136.499C146.31 136.679 146.42 137.079 146.25 137.399C146.07 137.719 145.67 137.829 145.35 137.659C145.02 137.479 144.91 137.079 145.09 136.759Z" fill="#6CA3EA"/>
<path d="M149.66 140.389C149.97 140.189 150.38 140.279 150.57 140.589C150.77 140.899 150.68 141.309 150.37 141.509C150.06 141.709 149.65 141.619 149.45 141.309C149.27 140.999 149.35 140.589 149.66 140.389Z" fill="#6CA3EA"/>
<path d="M151.93 146.02C152.3 146.02 152.59 146.32 152.59 146.68C152.59 147.05 152.29 147.34 151.93 147.34C151.56 147.34 151.27 147.04 151.27 146.68C151.27 146.31 151.56 146.02 151.93 146.02Z" fill="#6CA3EA"/>
<path d="M150.3 153.679C150.664 153.679 150.96 153.384 150.96 153.019C150.96 152.655 150.664 152.359 150.3 152.359C149.935 152.359 149.64 152.655 149.64 153.019C149.64 153.384 149.935 153.679 150.3 153.679Z" fill="#6CA3EA"/>
<path d="M146.61 156.719C146.87 156.979 146.87 157.399 146.61 157.659C146.35 157.919 145.93 157.919 145.67 157.659C145.41 157.399 145.41 156.979 145.67 156.719C145.94 156.459 146.36 156.459 146.61 156.719Z" fill="#6CA3EA"/>
<path d="M140.41 159.519C140.775 159.519 141.07 159.224 141.07 158.859C141.07 158.495 140.775 158.199 140.41 158.199C140.045 158.199 139.75 158.495 139.75 158.859C139.75 159.224 140.045 159.519 140.41 159.519Z" fill="#6CA3EA"/>
<path d="M135.71 136.759C135.53 136.439 135.13 136.329 134.81 136.499C134.49 136.679 134.38 137.079 134.55 137.399C134.73 137.719 135.13 137.829 135.45 137.659C135.77 137.479 135.88 137.079 135.71 136.759Z" fill="#6CA3EA"/>
<path d="M131.13 140.39C130.82 140.19 130.41 140.28 130.22 140.59C130.02 140.9 130.11 141.31 130.42 141.51C130.73 141.71 131.14 141.62 131.33 141.31C131.53 141 131.44 140.59 131.13 140.39Z" fill="#6CA3EA"/>
<path d="M128.87 146.02C128.5 146.02 128.21 146.32 128.21 146.68C128.21 147.05 128.51 147.34 128.87 147.34C129.24 147.34 129.53 147.04 129.53 146.68C129.53 146.31 129.23 146.02 128.87 146.02Z" fill="#6CA3EA"/>
<path d="M130.49 153.679C130.855 153.679 131.15 153.384 131.15 153.019C131.15 152.655 130.855 152.359 130.49 152.359C130.126 152.359 129.83 152.655 129.83 153.019C129.83 153.384 130.126 153.679 130.49 153.679Z" fill="#6CA3EA"/>
<path d="M134.18 156.719C133.92 156.979 133.92 157.399 134.18 157.659C134.44 157.919 134.86 157.919 135.12 157.659C135.38 157.399 135.38 156.979 135.12 156.719C134.86 156.459 134.44 156.459 134.18 156.719Z" fill="#6CA3EA"/>
<path d="M140.23 146.68C140.23 146.31 140.53 146.02 140.89 146.02C141.26 146.02 141.55 146.32 141.55 146.68C141.55 147.05 141.25 147.34 140.89 147.34C140.53 147.34 140.23 147.05 140.23 146.68Z" fill="#6CA3EA"/>
<path d="M140.98 138.409H140.8V146.679H140.98V138.409Z" fill="#6CA3EA"/>
<path d="M145.028 143.011L140.647 146.45L140.98 146.875L145.362 143.435L145.028 143.011Z" fill="#6CA3EA"/>
</svg>
