<svg width="440" height="153" viewBox="0 0 440 153" fill="none" xmlns="http://www.w3.org/2000/svg">
<path d="M28.6016 29.8594H0.378906V4.17578H28.6016V29.8594ZM0.378906 42.5547H28.6016V149H0.378906V42.5547Z" fill="#E43E2B"/>
<path d="M79.6758 104.566C80.5872 111.142 82.3776 116.057 85.0469 119.312C89.9297 125.237 98.2956 128.199 110.145 128.199C117.241 128.199 123.003 127.418 127.43 125.855C135.828 122.861 140.027 117.294 140.027 109.156C140.027 104.404 137.944 100.725 133.777 98.1211C129.611 95.582 123.068 93.3359 114.148 91.3828L98.9141 87.9648C83.9401 84.5794 73.5885 80.901 67.8594 76.9297C58.1589 70.2891 53.3086 59.9049 53.3086 45.7773C53.3086 32.8867 57.9961 22.1771 67.3711 13.6484C76.7461 5.11979 90.5156 0.855469 108.68 0.855469C123.849 0.855469 136.772 4.89193 147.449 12.9648C158.191 20.9727 163.823 32.6263 164.344 47.9258H135.438C134.917 39.2669 131.141 33.1146 124.109 29.4688C119.422 27.0599 113.595 25.8555 106.629 25.8555C98.8815 25.8555 92.6966 27.418 88.0742 30.543C83.4518 33.668 81.1406 38.0299 81.1406 43.6289C81.1406 48.7721 83.4193 52.6133 87.9766 55.1523C90.9062 56.8451 97.1562 58.8307 106.727 61.1094L131.531 67.0664C142.404 69.6706 150.607 73.1536 156.141 77.5156C164.734 84.2865 169.031 94.0846 169.031 106.91C169.031 120.061 163.986 130.999 153.895 139.723C143.868 148.382 129.676 152.711 111.316 152.711C92.5664 152.711 77.8203 148.447 67.0781 139.918C56.3359 131.324 50.9648 119.54 50.9648 104.566H79.6758Z" fill="#3B7DED"/>
<path d="M295.887 5.05469V30.543H252.82V149H222.547V30.543H179.285V5.05469H295.887Z" fill="#F0B501"/>
<path d="M352.918 94.6055H389.441L371.473 37.9648L352.918 94.6055ZM354.773 5.05469H388.758L439.734 149H407.117L397.84 119.41H344.812L334.852 149H303.406L354.773 5.05469Z" fill="#2BA24C"/>
</svg>
