<svg width="176" height="30" viewBox="0 0 176 30" fill="none" xmlns="http://www.w3.org/2000/svg">
<path d="M6.19438 8.2373H0V29.9971H6.19438V8.2373Z" fill="#E43E2B"/>
<path d="M16.8462 21.7451C16.9752 22.831 17.2542 23.6019 17.6862 24.0608C18.4481 24.8768 19.8549 25.2817 21.9067 25.2817C23.1126 25.2817 24.0725 25.1047 24.7804 24.7448C25.4914 24.3878 25.8453 23.8509 25.8453 23.1369C25.8453 22.45 25.5604 21.9311 24.9874 21.5711C24.4145 21.2141 22.2847 20.5992 18.5981 19.7293C15.9433 19.0723 14.0715 18.2504 12.9886 17.2635C11.9027 16.2916 11.3598 14.8908 11.3598 13.0639C11.3598 10.9072 12.2087 9.05335 13.9035 7.5025C15.6014 5.95166 17.9891 5.17773 21.0668 5.17773C23.9885 5.17773 26.3673 5.75968 28.2091 6.92356C30.0479 8.08744 31.1038 10.1002 31.3768 12.956H25.2694C25.1824 12.17 24.9604 11.5491 24.6035 11.0901C23.9285 10.2622 22.7826 9.84827 21.1658 9.84827C19.8339 9.84827 18.883 10.0552 18.3191 10.4692C17.7521 10.8832 17.4702 11.3691 17.4702 11.9271C17.4702 12.626 17.7701 13.1359 18.3731 13.4479C18.976 13.7779 21.0998 14.3418 24.7504 15.1397C27.1832 15.7127 29.007 16.5766 30.2219 17.7345C31.4218 18.9074 32.0217 20.3712 32.0217 22.129C32.0217 24.4448 31.1578 26.3346 29.433 27.7985C27.7081 29.2623 25.0414 29.9943 21.4328 29.9943C17.7521 29.9943 15.0374 29.2203 13.2826 27.6695C11.5278 26.1186 10.6519 24.1448 10.6519 21.7421H16.8462V21.7451Z" fill="#E43E2B"/>
<path d="M34.1216 10.8679V6.51835H37.3793V0H43.4237V6.51535H47.2183V10.8649H43.4237V23.2117C43.4237 24.1686 43.5436 24.7655 43.7866 25.0025C44.0296 25.2395 44.7735 25.3565 46.0154 25.3565C46.2014 25.3565 46.3964 25.3535 46.6063 25.3445C46.8133 25.3385 47.0173 25.3265 47.2183 25.3115V29.877L44.3236 29.985C41.4379 30.084 39.464 29.586 38.4082 28.4852C37.7212 27.7862 37.3793 26.7063 37.3793 25.2485V10.8679H34.1216Z" fill="#E43E2B"/>
<path d="M48.7393 10.8679V6.51835H51.9969V0H58.0413V6.51535H61.8329V10.8649H58.0383V23.2117C58.0383 24.1686 58.1583 24.7655 58.4013 25.0025C58.6443 25.2395 59.3882 25.3565 60.6301 25.3565C60.8161 25.3565 61.011 25.3535 61.221 25.3445C61.428 25.3385 61.632 25.3265 61.8329 25.3115V29.877L58.9382 29.985C56.0525 30.084 54.0787 29.586 53.0228 28.4852C52.3359 27.7862 51.9939 26.7063 51.9939 25.2485V10.8679H48.7393Z" fill="#E43E2B"/>
<path d="M4.61637 1.13989L5.05733 0.69893C4.52338 0.260974 3.84245 0 3.09852 0C2.3546 0 1.67067 0.260974 1.13672 0.69893L1.57767 1.13989C1.99763 0.812919 2.52558 0.620938 3.09552 0.620938C3.66847 0.620938 4.19641 0.812919 4.61637 1.13989Z" fill="#E43E2B"/>
<path d="M5.05469 4.6163L5.49564 5.05726C5.9336 4.52331 6.19457 3.84238 6.19457 3.09845C6.19457 2.35453 5.9336 1.6736 5.49564 1.13965L5.05469 1.5806C5.38165 2.00056 5.57364 2.52851 5.57364 3.09845C5.57364 3.6684 5.38165 4.19634 5.05469 4.6163Z" fill="#E43E2B"/>
<path d="M1.13989 1.57767L0.69893 1.13672C0.260974 1.67067 0 2.3516 0 3.09552C0 3.83945 0.260974 4.52038 0.69893 5.05433L1.13989 4.61337C0.812919 4.19341 0.620938 3.66547 0.620938 3.09552C0.617938 2.52558 0.812919 1.99763 1.13989 1.57767Z" fill="#E43E2B"/>
<path d="M1.57767 5.05469L1.13672 5.49564C1.67067 5.9336 2.3516 6.19457 3.09552 6.19457C3.83945 6.19457 4.52038 5.9336 5.05433 5.49564L4.61337 5.05469C4.19341 5.38165 3.66547 5.57364 3.09552 5.57364C2.52558 5.57364 1.99763 5.38165 1.57767 5.05469Z" fill="#E43E2B"/>
<path d="M3.09558 4.95289C4.12107 4.95289 4.9524 4.12156 4.9524 3.09607C4.9524 2.07058 4.12107 1.23926 3.09558 1.23926C2.07009 1.23926 1.23877 2.07058 1.23877 3.09607C1.23877 4.12156 2.07009 4.95289 3.09558 4.95289Z" fill="#E43E2B"/>
<path d="M85.2396 27.6604C85.0386 27.3754 84.9186 26.8325 84.8766 26.0316C84.8466 24.9757 84.8346 24.0728 84.8346 23.3318V12.6139C84.8346 9.80019 83.8387 7.88338 81.8439 6.86948C79.8491 5.85558 77.5664 5.34863 74.9986 5.34863C71.051 5.34863 68.2673 6.37753 66.6475 8.43532C65.6276 9.74919 65.0546 11.429 64.9256 13.4718H70.82C70.964 12.5719 71.255 11.858 71.69 11.33C72.2989 10.6161 73.3338 10.2591 74.7976 10.2591C76.0995 10.2591 77.0894 10.4421 77.7643 10.8051C78.4393 11.1681 78.7753 11.831 78.7753 12.7879C78.7753 13.5738 78.3373 14.1528 77.4584 14.5247C76.9694 14.7377 76.1565 14.9177 75.0196 15.0617L72.9258 15.3196C70.5501 15.6196 68.7503 16.1206 67.5264 16.8195C65.2946 18.1064 64.1787 20.1852 64.1787 23.0559C64.1787 25.2696 64.8716 26.9825 66.2575 28.1884C67.6434 29.3942 69.4012 30.0002 71.528 30.0002C73.1958 30.0002 74.6897 29.6222 76.0125 28.8633C77.1194 28.2213 78.0973 27.4414 78.9432 26.5265C78.9852 27.0545 79.0422 27.5254 79.1142 27.9424C79.1862 28.3563 79.3152 28.8003 79.5012 29.2712H86.1455V28.3713C85.7376 28.1824 85.4376 27.9484 85.2396 27.6604ZM74.5127 17.9084C75.5296 17.9084 76.4625 18.2653 77.1914 18.8653L76.5885 19.4682C76.0155 19.0213 75.2956 18.7573 74.5127 18.7573C73.7298 18.7573 73.0098 19.0243 72.4369 19.4682L71.8339 18.8653C72.5629 18.2653 73.4958 17.9084 74.5127 17.9084ZM77.0504 22.141C77.0504 23.5448 75.9135 24.6817 74.5097 24.6817C73.1058 24.6817 71.9689 23.5448 71.9689 22.141C71.9689 20.7371 73.1058 19.6002 74.5097 19.6002C75.9135 19.6002 77.0504 20.7371 77.0504 22.141ZM71.234 24.8197C70.6371 24.0908 70.2771 23.1579 70.2771 22.141C70.2771 21.1241 70.6341 20.1911 71.234 19.4622L71.8369 20.0652C71.39 20.6381 71.126 21.358 71.126 22.141C71.126 22.9239 71.39 23.6438 71.8369 24.2167L71.234 24.8197ZM74.5127 26.3735C73.4958 26.3735 72.5629 26.0166 71.8339 25.4166L72.4369 24.8137C73.0098 25.2606 73.7298 25.5246 74.5127 25.5246C75.2956 25.5246 76.0155 25.2576 76.5885 24.8137L77.1914 25.4166C76.4595 26.0136 75.5266 26.3735 74.5127 26.3735ZM77.7884 24.8197L77.1854 24.2167C77.6324 23.6438 77.8963 22.9239 77.8963 22.141C77.8963 21.358 77.6324 20.6381 77.1854 20.0652L77.7884 19.4622C78.3853 20.1911 78.7423 21.1241 78.7423 22.141C78.7453 23.1549 78.3853 24.0878 77.7884 24.8197Z" fill="#E43E2B"/>
<path d="M109.651 27.6604C109.45 27.3754 109.33 26.8325 109.288 26.0316C109.258 24.9757 109.246 24.0728 109.246 23.3318V12.6139C109.246 9.80019 108.25 7.88338 106.256 6.86948C104.261 5.85558 101.978 5.34863 99.4102 5.34863C95.4626 5.34863 92.6789 6.37753 91.0591 8.43532C90.0392 9.74919 89.4662 11.429 89.3373 13.4718H95.2317C95.3756 12.5719 95.6666 11.858 96.1016 11.33C96.7105 10.6161 97.7454 10.2591 99.2093 10.2591C100.511 10.2591 101.501 10.4421 102.176 10.8051C102.851 11.1681 103.187 11.831 103.187 12.7879C103.187 13.5738 102.749 14.1528 101.87 14.5247C101.381 14.7377 100.568 14.9177 99.4312 15.0617L97.3375 15.3196C94.9617 15.6196 93.1619 16.1206 91.938 16.8195C89.7062 18.1064 88.5903 20.1852 88.5903 23.0559C88.5903 25.2696 89.2833 26.9825 90.6691 28.1884C92.055 29.3942 93.8128 30.0002 95.9396 30.0002C97.6074 30.0002 99.1013 29.6222 100.424 28.8633C101.531 28.2213 102.509 27.4414 103.355 26.5265C103.397 27.0545 103.454 27.5254 103.526 27.9424C103.598 28.3563 103.727 28.8003 103.913 29.2712H110.557V28.3713C110.152 28.1824 109.852 27.9484 109.651 27.6604ZM98.9243 17.9084C99.9412 17.9084 100.874 18.2653 101.603 18.8653L101 19.4682C100.427 19.0213 99.7072 18.7573 98.9243 18.7573C98.1414 18.7573 97.4214 19.0243 96.8485 19.4682L96.2456 18.8653C96.9745 18.2653 97.9074 17.9084 98.9243 17.9084ZM101.462 22.141C101.462 23.5448 100.325 24.6817 98.9213 24.6817C97.5174 24.6817 96.3806 23.5448 96.3806 22.141C96.3806 20.7371 97.5174 19.6002 98.9213 19.6002C100.325 19.6002 101.462 20.7371 101.462 22.141ZM95.6456 24.8197C95.0487 24.0908 94.6887 23.1579 94.6887 22.141C94.6887 21.1241 95.0457 20.1911 95.6456 19.4622L96.2486 20.0652C95.8016 20.6381 95.5376 21.358 95.5376 22.141C95.5376 22.9239 95.8016 23.6438 96.2486 24.2167L95.6456 24.8197ZM98.9243 26.3735C97.9074 26.3735 96.9745 26.0166 96.2456 25.4166L96.8485 24.8137C97.4214 25.2606 98.1414 25.5246 98.9243 25.5246C99.7072 25.5246 100.427 25.2576 101 24.8137L101.603 25.4166C100.874 26.0136 99.9412 26.3735 98.9243 26.3735ZM102.2 24.8197L101.597 24.2167C102.044 23.6438 102.308 22.9239 102.308 22.141C102.308 21.358 102.044 20.6381 101.597 20.0652L102.2 19.4622C102.797 20.1911 103.154 21.1241 103.154 22.141C103.157 23.1549 102.797 24.0878 102.2 24.8197Z" fill="#E43E2B"/>
<path d="M128.414 16.4055C128.378 15.7186 128.225 15.1276 127.949 14.6387C127.673 14.1497 127.316 13.7568 126.878 13.4658C126.44 13.1748 125.957 12.9618 125.435 12.8329C124.91 12.7039 124.374 12.6409 123.825 12.6409C123.342 12.6409 122.871 12.6829 122.406 12.7699C121.941 12.8569 121.494 13.0158 121.065 13.2468C120.636 13.4778 120.282 13.8108 120.006 14.2397C119.73 14.6687 119.592 15.2206 119.592 15.8896C119.592 16.5945 119.793 17.1224 120.198 17.4764C120.603 17.8304 121.131 18.0823 121.785 18.2383L127.073 19.4502C128.363 19.7592 129.386 20.3141 130.142 21.115C130.898 21.913 131.276 23.0108 131.276 24.4027C131.276 25.4346 131.06 26.3195 130.631 27.0604C130.202 27.8014 129.629 28.3803 128.915 28.8003C128.201 29.2232 127.427 29.5262 126.593 29.7152C125.759 29.9042 124.904 29.9971 124.029 29.9971C123.219 29.9971 122.508 29.9401 121.887 29.8292C121.269 29.7182 120.747 29.5742 120.327 29.4032C119.904 29.2322 119.553 29.0522 119.271 28.8633C118.986 28.6743 118.707 28.4583 118.434 28.2183C117.693 27.5644 117.195 26.8655 116.937 26.1155C116.679 25.3686 116.55 24.5047 116.55 23.5238H118.896C118.896 24.3157 119.043 24.9936 119.334 25.5606C119.625 26.1275 120.021 26.5805 120.522 26.9165C121.02 27.2524 121.566 27.4924 122.16 27.6394C122.754 27.7864 123.369 27.8584 124.005 27.8584C124.538 27.8584 125.075 27.8164 125.615 27.7294C126.158 27.6424 126.671 27.4894 127.163 27.2644C127.652 27.0424 128.057 26.7185 128.375 26.2985C128.693 25.8786 128.852 25.3566 128.852 24.7387C128.852 24.2407 128.789 23.8268 128.66 23.4998C128.531 23.1728 128.321 22.8909 128.027 22.6479C127.733 22.4079 127.343 22.1979 126.854 22.0149C126.365 21.832 125.714 21.649 124.907 21.46L121.116 20.5841C120.702 20.4821 120.285 20.3471 119.865 20.1851C119.442 20.0231 119.028 19.7772 118.614 19.4502C118.2 19.1232 117.858 18.6943 117.582 18.1603C117.306 17.6264 117.168 16.9814 117.168 16.2255C117.168 15.4876 117.291 14.7737 117.543 14.0837C117.792 13.3968 118.176 12.7819 118.692 12.2389C119.208 11.699 119.874 11.273 120.69 10.961C121.506 10.6521 122.457 10.4961 123.54 10.4961C125.051 10.4961 126.296 10.6941 127.265 11.09C128.237 11.486 128.966 11.9839 129.458 12.5869C129.947 13.1898 130.28 13.8078 130.451 14.4437C130.622 15.0796 130.727 15.7336 130.76 16.4055H128.414Z" fill="#414042"/>
<path d="M136.951 17.9023V26.6705C136.951 27.1354 137.083 27.4264 137.35 27.5464C137.617 27.6664 137.938 27.7264 138.316 27.7264H139.117V29.5052C138.928 29.5232 138.583 29.5562 138.085 29.6072C137.725 29.6582 137.5 29.6852 137.413 29.6852C136.381 29.6852 135.667 29.4332 135.271 28.9232C134.876 28.4163 134.678 27.7084 134.678 26.7965V17.9023H132.845V16.0185H134.678V12.2539H136.948V16.0185H139.114V17.9023H136.951Z" fill="#414042"/>
<path d="M140.95 20.1464C141.208 19.3035 141.595 18.5385 142.111 17.8516C142.627 17.1647 143.284 16.6217 144.085 16.2258C144.883 15.8298 145.8 15.6318 146.832 15.6318C147.864 15.6318 148.779 15.8298 149.58 16.2258C150.378 16.6217 151.038 17.1587 151.554 17.8366C152.07 18.5175 152.457 19.2825 152.715 20.1314C152.973 20.9833 153.102 21.8562 153.102 22.7501C153.102 23.644 152.973 24.5139 152.715 25.3539C152.457 26.1968 152.07 26.9617 151.554 27.6486C151.038 28.3356 150.381 28.8785 149.58 29.2745C148.779 29.6704 147.864 29.8684 146.832 29.8684C145.8 29.8684 144.886 29.6704 144.085 29.2745C143.284 28.8785 142.627 28.3386 142.111 27.6486C141.595 26.9617 141.208 26.1968 140.95 25.3539C140.692 24.5109 140.563 23.644 140.563 22.7501C140.563 21.8562 140.692 20.9863 140.95 20.1464ZM143.089 24.4C143.209 24.9849 143.413 25.5428 143.695 26.0768C143.98 26.6107 144.379 27.0487 144.895 27.3907C145.411 27.7356 146.055 27.9066 146.829 27.9066C147.603 27.9066 148.248 27.7356 148.764 27.3907C149.28 27.0457 149.685 26.6077 149.976 26.0768C150.267 25.5428 150.471 24.9849 150.582 24.4C150.693 23.815 150.75 23.2661 150.75 22.7501C150.75 22.2342 150.693 21.6852 150.582 21.1003C150.471 20.5153 150.267 19.9574 149.976 19.4235C149.682 18.8895 149.28 18.4516 148.764 18.1066C148.248 17.7616 147.603 17.5906 146.829 17.5906C146.055 17.5906 145.411 17.7616 144.895 18.1066C144.379 18.4516 143.98 18.8895 143.695 19.4235C143.413 19.9574 143.209 20.5153 143.089 21.1003C142.969 21.6852 142.909 22.2342 142.909 22.7501C142.909 23.2661 142.969 23.818 143.089 24.4Z" fill="#414042"/>
<path d="M158.255 29.5084H155.984V16.0188H158.126V18.2626H158.177C158.657 17.4197 159.209 16.7717 159.827 16.3158C160.445 15.8598 161.159 15.6318 161.969 15.6318C162.191 15.6318 162.389 15.6588 162.563 15.7098V18.0556H161.711C160.679 18.0556 159.845 18.4036 159.209 19.0995C158.573 19.7954 158.255 20.6503 158.255 21.6672V29.5084Z" fill="#414042"/>
<path d="M175.716 25.2788C175.665 25.7588 175.467 26.3107 175.122 26.9286C174.916 27.3246 174.664 27.6996 174.361 28.0505C174.061 28.4045 173.713 28.7075 173.317 28.9654C172.888 29.2414 172.411 29.4634 171.886 29.6374C171.361 29.8083 170.617 29.8953 169.654 29.8953C167.797 29.8953 166.327 29.2684 165.244 28.0115C164.162 26.7577 163.619 25.1318 163.619 23.137C163.619 22.0721 163.748 21.0852 164.006 20.1853C164.264 19.2824 164.663 18.4875 165.205 17.8005C165.748 17.1136 166.426 16.5797 167.242 16.2017C168.058 15.8237 169.009 15.6348 170.092 15.6348C172 15.6348 173.446 16.3307 174.424 17.7226C175.404 19.1144 175.893 21.0402 175.893 23.5H166.042C166.042 24.9278 166.372 26.0227 167.035 26.7877C167.698 27.5526 168.673 27.9365 169.963 27.9365C170.479 27.9365 170.947 27.8495 171.367 27.6786C171.787 27.5076 172.162 27.2736 172.489 26.9826C173.074 26.4337 173.392 25.8667 173.443 25.2818H175.716V25.2788ZM173.548 21.6942C173.512 21.1272 173.422 20.6083 173.278 20.1343C173.131 19.6604 172.918 19.2404 172.633 18.8714C172.351 18.5025 171.97 18.2085 171.499 17.9955C171.025 17.7796 170.455 17.6746 169.783 17.6746C169.285 17.6746 168.802 17.7826 168.337 17.9955C167.872 18.2115 167.467 18.5085 167.125 18.8864C166.78 19.2644 166.513 19.6994 166.324 20.1883C166.135 20.6773 166.042 21.1812 166.042 21.6972H173.548V21.6942Z" fill="#414042"/>
</svg>
