<svg width="25" height="25" viewBox="0 0 25 25" fill="none" xmlns="http://www.w3.org/2000/svg">
<path d="M25 23.669L16.6974 15.3606C19.7134 11.6625 19.5004 6.20461 16.0561 2.75685C12.3839 -0.918949 6.42875 -0.918949 2.75412 2.75685C-0.918039 6.43264 -0.918039 12.3937 2.75412 16.072C6.20589 19.5272 11.6733 19.7354 15.3677 16.6941L23.6653 25L25 23.669ZM4.0863 14.7385C1.14708 11.7964 1.14708 7.02751 4.0863 4.08787C7.02551 1.14574 11.7896 1.14574 14.7264 4.08787C17.6656 7.02999 17.6656 11.7989 14.7264 14.7385C11.7872 17.6806 7.02303 17.6806 4.0863 14.7385Z" fill="#E43E2B"/>
</svg>
