<svg width="25" height="25" viewBox="0 0 25 25" fill="none" xmlns="http://www.w3.org/2000/svg">
<g clip-path="url(#clip0_1126_11)">
<path fill-rule="evenodd" clip-rule="evenodd" d="M23.2856 14.5732H20.2254C20.123 14.5841 20.0266 14.6284 19.9501 14.6999C19.8736 14.7713 19.8209 14.8662 19.7998 14.9707C19.5938 15.6331 19.2986 16.262 18.923 16.8387C18.2364 18.082 17.2279 19.1009 16.0118 19.7799C14.8031 20.4726 13.447 20.8414 12.0663 20.853C11.0661 20.8708 10.0737 20.6676 9.15507 20.2569C8.21465 19.8785 7.35549 19.3112 6.62689 18.5875L8.81032 16.4015C8.9713 16.1838 9.0648 15.9205 9.07846 15.6464C9.0783 15.3696 8.98325 15.1019 8.81032 14.8912C8.60448 14.7138 8.35282 14.6032 8.08676 14.5732H0.995949C0.728406 14.6023 0.475156 14.713 0.26814 14.8912C0.108664 15.1149 0.0154829 15.3819 0 15.6596L0 22.964C0.0247204 23.2356 0.117128 23.4958 0.26814 23.7191C0.475156 23.8974 0.728406 24.008 0.995949 24.0371C1.26705 24.0233 1.52477 23.9107 1.72376 23.7191L3.79227 21.6391C4.90663 22.7152 6.18892 23.5873 7.58453 24.2182C9.00246 24.7783 10.5111 25.0497 12.028 25.0175C14.7627 25.0647 17.4294 24.132 19.5785 22.3766C21.6875 20.5471 23.1553 18.0461 23.7538 15.2622C23.8304 15.1827 23.8304 15.1827 23.8304 15.1032C23.8304 15.0237 23.7538 14.9045 23.6772 14.7455C23.5155 14.666 23.4431 14.5732 23.2856 14.5732Z" fill="#414042"/>
<path fill-rule="evenodd" clip-rule="evenodd" d="M23.8602 1.35124C23.7697 1.24328 23.6588 1.1558 23.5343 1.09426C23.4098 1.03272 23.2745 0.998432 23.1367 0.993531C22.8597 1.01979 22.6005 1.14644 22.4046 1.35124L20.3787 3.41801C19.2582 2.33035 17.944 1.47982 16.5098 0.914039C15.1006 0.310239 13.5909 -0.000361929 12.0663 -0.000110037C9.3185 -0.0341689 6.64688 0.936752 4.52008 2.74234C2.39921 4.52559 0.903422 6.98398 0.263885 9.73757V9.89655C0.263885 10.0555 0.340497 10.135 0.417108 10.294C0.53184 10.3695 0.664358 10.4107 0.800166 10.4132H3.90719C4.01193 10.4183 4.11511 10.3854 4.199 10.3201C4.28289 10.2549 4.34224 10.1613 4.36686 10.0555C4.6245 9.40236 4.91868 8.76534 5.24789 8.14775C5.92376 6.89587 6.93501 5.87422 8.15912 5.20657C9.35874 4.53117 10.7015 4.17604 12.0663 4.17318C14.1238 4.15661 16.1072 4.96873 17.5994 6.43868L15.4117 8.64677C15.3103 8.74134 15.2305 8.85822 15.1782 8.98887C15.1259 9.11953 15.1025 9.26066 15.1095 9.40194C15.1086 9.54444 15.137 9.6855 15.1927 9.81572C15.2485 9.94594 15.3304 10.0623 15.433 10.1571C15.5109 10.2569 15.6118 10.3347 15.7263 10.3833C15.8409 10.432 15.9654 10.4499 16.0884 10.4353H23.1367C23.27 10.4536 23.4056 10.4378 23.5317 10.3893C23.6578 10.3408 23.7706 10.2611 23.8602 10.1571C23.9601 10.0611 24.0391 9.94405 24.092 9.81382C24.1448 9.6836 24.1703 9.54319 24.1667 9.40194V2.02692C24.1693 1.89739 24.143 1.76898 24.0899 1.65176C24.0367 1.53453 23.9581 1.43167 23.8602 1.35124Z" fill="#414042"/>
</g>
<defs>
<clipPath id="clip0_1126_11">
<rect width="24.1667" height="25" fill="white"/>
</clipPath>
</defs>
</svg>
