<svg width="109" height="17" viewBox="0 0 109 17" fill="none" xmlns="http://www.w3.org/2000/svg">
<path d="M8.5 0L10.4084 5.87336L16.584 5.87336L11.5878 9.50329L13.4962 15.3766L8.5 11.7467L3.50383 15.3766L5.41219 9.50329L0.416019 5.87336L6.59163 5.87336L8.5 0Z" fill="#F0B501"/>
<path d="M31.4497 0L33.3581 5.87336L39.5337 5.87336L34.5375 9.50329L36.4459 15.3766L31.4497 11.7467L26.4535 15.3766L28.3619 9.50329L23.3657 5.87336L29.5413 5.87336L31.4497 0Z" fill="#F0B501"/>
<path d="M54.3999 0L56.3083 5.87336L62.4839 5.87336L57.4877 9.50329L59.3961 15.3766L54.3999 11.7467L49.4037 15.3766L51.3121 9.50329L46.3159 5.87336L52.4915 5.87336L54.3999 0Z" fill="#F0B501"/>
<path d="M77.3501 0L79.2585 5.87336L85.4341 5.87336L80.4379 9.50329L82.3463 15.3766L77.3501 11.7467L72.3539 15.3766L74.2623 9.50329L69.2661 5.87336L75.4417 5.87336L77.3501 0Z" fill="#F0B501"/>
<path d="M100.3 0L102.209 5.87336L108.384 5.87336L103.388 9.50329L105.296 15.3766L100.3 11.7467L95.3041 15.3766L97.2125 9.50329L92.2163 5.87336L98.3919 5.87336L100.3 0Z" fill="#F0B501"/>
</svg>
