<svg width="80" height="80" viewBox="0 0 80 80" fill="none" xmlns="http://www.w3.org/2000/svg">
<g id="Whatsapp Icon-01 1" clip-path="url(#clip0_1172_2)">
<path id="Vector" d="M40.0029 80.0059C62.096 80.0059 80.0059 62.096 80.0059 40.0029C80.0059 17.9099 62.096 0 40.0029 0C17.9099 0 0 17.9099 0 40.0029C0 62.096 17.9099 80.0059 40.0029 80.0059Z" fill="#414042"/>
<g id="WA Logo">
<path id="Vector_2" fill-rule="evenodd" clip-rule="evenodd" d="M58.0569 21.8429C53.7046 17.497 47.9222 14.8795 41.7848 14.4772C35.6474 14.0749 29.5728 15.9152 24.6904 19.6558C19.8081 23.3964 16.4504 28.7828 15.2416 34.8135C14.0328 40.8441 15.0552 47.1084 18.1188 52.4417L14.5186 65.5875L27.9707 62.0521C31.6911 64.079 35.8604 65.1405 40.0971 65.1397C45.1122 65.1374 50.0142 63.6491 54.1842 60.863C58.3542 58.0768 61.6052 54.1176 63.5268 49.4852C65.4483 44.8528 65.9543 39.7549 64.9807 34.8352C64.0072 29.9154 61.5979 25.3944 58.0569 21.8429ZM40.1089 60.8737C36.3308 60.8721 32.6227 59.8545 29.3731 57.9275L28.6071 57.4738L20.623 59.5715L22.7442 51.7877L22.2434 50.9922C19.7587 47.0317 18.6606 42.3578 19.1218 37.7052C19.5829 33.0526 21.577 28.6851 24.7907 25.2894C28.0045 21.8936 32.2555 19.6621 36.8757 18.9456C41.4959 18.229 46.2231 19.0682 50.3144 21.3311C54.4057 23.594 57.629 27.1523 59.4777 31.4467C61.3263 35.7411 61.6954 40.5281 60.527 45.0551C59.3587 49.5822 56.719 53.5926 53.023 56.456C49.327 59.3194 44.7843 60.8734 40.1089 60.8737ZM51.6755 45.0822C51.0391 44.7641 47.9221 43.2321 47.3447 43.0199C46.7672 42.8078 46.3371 42.7017 45.9187 43.3381C45.5004 43.9745 44.2807 45.4004 43.9094 45.8247C43.5382 46.2489 43.167 46.2961 42.5365 45.9838C40.6683 45.2378 38.9438 44.1731 37.4397 42.8373C36.0513 41.5541 34.8599 40.0729 33.9043 38.4416C33.5331 37.8111 33.863 37.4694 34.1812 37.1512C34.4994 36.833 34.8176 36.4088 35.1358 36.0375C35.3947 35.7175 35.607 35.3624 35.7663 34.9828C35.85 34.8072 35.889 34.6136 35.8798 34.4193C35.8705 34.225 35.8133 34.036 35.7132 33.8692C35.5541 33.5569 34.2873 30.4339 33.757 29.1553C33.2267 27.8767 32.7199 28.0829 32.331 28.0652C31.9421 28.0476 31.5415 28.0652 31.1172 28.0652C30.8012 28.0817 30.4917 28.1617 30.2072 28.3004C29.9227 28.4391 29.6691 28.6337 29.4615 28.8725C28.7419 29.5527 28.1725 30.3758 27.79 31.2891C27.4074 32.2024 27.2201 33.1856 27.2401 34.1756C27.2401 37.2985 29.5145 40.3095 29.8327 40.7337C30.1509 41.158 34.2755 47.5158 40.6569 50.2616C41.837 50.7694 43.0426 51.2158 44.2689 51.5991C45.5631 51.9912 46.9305 52.0779 48.2639 51.8525C49.4836 51.6699 52.0173 50.3146 52.5476 48.8356C53.0779 47.3567 53.072 46.0839 52.9129 45.8247C52.7538 45.5654 52.3119 45.4004 51.6755 45.0822Z" fill="white"/>
</g>
</g>
<defs>
<clipPath id="clip0_1172_2">
<rect width="80" height="80" fill="white"/>
</clipPath>
</defs>
</svg>
